<?xml version="1.0" encoding="utf-8"?>
<!DOCTYPE svg PUBLIC "-//W3C//DTD SVG 20010904//EN" "http://www.w3.org/TR/2001/REC-SVG-20010904/DTD/svg10.dtd">
<svg version="1.0" xmlns="http://www.w3.org/2000/svg" width="258pt" height="258pt" viewBox="0 0 258 258" preserveAspectRatio="xMidYMid meet">
<g fill="#DAF101FF">
<path d="M 49.00 239.00 C 49.00 233.67 49.22 233.00 51.00 233.00 C 52.33 233.00 53.00 232.33 53.00 231.00 C 53.00 229.67 53.67 229.00 55.00 229.00 C 56.33 229.00 57.00 228.33 57.00 227.00 C 57.00 225.67 57.67 225.00 59.00 225.00 C 60.67 225.00 61.00 224.33 61.00 221.00 C 61.00 217.67 61.33 217.00 63.00 217.00 C 64.33 217.00 65.00 216.33 65.00 215.00 C 65.00 213.67 65.67 213.00 67.00 213.00 C 68.67 213.00 69.00 212.33 69.00 209.00 C 69.00 205.67 69.33 205.00 71.00 205.00 C 72.67 205.00 73.00 204.33 73.00 201.00 C 73.00 197.67 73.33 197.00 75.00 197.00 C 76.67 197.00 77.00 196.33 77.00 193.00 C 77.00 189.67 77.33 189.00 79.00 189.00 C 80.33 189.00 81.00 188.33 81.00 187.00 C 81.00 185.67 81.67 185.00 83.00 185.00 C 84.78 185.00 85.00 184.33 85.00 179.00 C 85.00 173.67 85.22 173.00 87.00 173.00 C 88.78 173.00 89.00 172.33 89.00 167.00 C 89.00 161.67 89.22 161.00 91.00 161.00 C 92.87 161.00 93.00 160.33 93.00 151.00 C 93.00 141.67 93.13 141.00 95.00 141.00 C 96.93 141.00 97.00 140.33 97.00 121.00 C 97.00 101.67 96.93 101.00 95.00 101.00 C 93.13 101.00 93.00 100.33 93.00 91.00 C 93.00 81.67 92.87 81.00 91.00 81.00 C 89.33 81.00 89.00 80.33 89.00 77.00 C 89.00 73.67 88.67 73.00 87.00 73.00 C 85.22 73.00 85.00 72.33 85.00 67.00 C 85.00 61.67 84.78 61.00 83.00 61.00 C 81.33 61.00 81.00 60.33 81.00 57.00 C 81.00 53.67 80.67 53.00 79.00 53.00 C 77.33 53.00 77.00 52.33 77.00 49.00 C 77.00 45.67 76.67 45.00 75.00 45.00 C 73.67 45.00 73.00 44.33 73.00 43.00 C 73.00 41.67 72.33 41.00 71.00 41.00 C 69.33 41.00 69.00 40.33 69.00 37.00 C 69.00 33.67 68.67 33.00 67.00 33.00 C 65.67 33.00 65.00 32.33 65.00 31.00 C 65.00 29.67 64.33 29.00 63.00 29.00 C 61.33 29.00 61.00 28.33 61.00 25.00 C 61.00 21.67 60.67 21.00 59.00 21.00 C 57.33 21.00 57.00 20.33 57.00 17.00 C 57.00 13.67 57.33 13.00 59.00 13.00 C 60.33 13.00 61.00 13.67 61.00 15.00 C 61.00 16.33 61.67 17.00 63.00 17.00 C 64.33 17.00 65.00 17.67 65.00 19.00 C 65.00 20.67 65.67 21.00 69.00 21.00 C 72.33 21.00 73.00 21.33 73.00 23.00 C 73.00 24.33 73.67 25.00 75.00 25.00 C 76.33 25.00 77.00 25.67 77.00 27.00 C 77.00 28.67 77.67 29.00 81.00 29.00 C 84.33 29.00 85.00 29.33 85.00 31.00 C 85.00 32.33 85.67 33.00 87.00 33.00 C 88.33 33.00 89.00 33.67 89.00 35.00 C 89.00 36.33 89.67 37.00 91.00 37.00 C 92.33 37.00 93.00 37.67 93.00 39.00 C 93.00 40.67 93.67 41.00 97.00 41.00 C 100.33 41.00 101.00 41.33 101.00 43.00 C 101.00 44.33 101.67 45.00 103.00 45.00 C 104.33 45.00 105.00 45.67 105.00 47.00 C 105.00 48.33 105.67 49.00 107.00 49.00 C 108.33 49.00 109.00 49.67 109.00 51.00 C 109.00 52.33 109.67 53.00 111.00 53.00 C 112.33 53.00 113.00 53.67 113.00 55.00 C 113.00 56.67 113.67 57.00 117.00 57.00 C 120.33 57.00 121.00 57.33 121.00 59.00 C 121.00 60.33 121.67 61.00 123.00 61.00 C 124.33 61.00 125.00 61.67 125.00 63.00 C 125.00 64.33 125.67 65.00 127.00 65.00 C 128.33 65.00 129.00 65.67 129.00 67.00 C 129.00 68.67 129.67 69.00 133.00 69.00 C 136.33 69.00 137.00 69.33 137.00 71.00 C 137.00 72.33 137.67 73.00 139.00 73.00 C 140.33 73.00 141.00 73.67 141.00 75.00 C 141.00 76.33 141.67 77.00 143.00 77.00 C 144.33 77.00 145.00 77.67 145.00 79.00 C 145.00 80.67 145.67 81.00 149.00 81.00 C 152.33 81.00 153.00 81.33 153.00 83.00 C 153.00 84.33 153.67 85.00 155.00 85.00 C 156.33 85.00 157.00 85.67 157.00 87.00 C 157.00 88.33 157.67 89.00 159.00 89.00 C 160.33 89.00 161.00 89.67 161.00 91.00 C 161.00 92.67 161.67 93.00 165.00 93.00 C 168.33 93.00 169.00 93.33 169.00 95.00 C 169.00 96.33 169.67 97.00 171.00 97.00 C 172.33 97.00 173.00 97.67 173.00 99.00 C 173.00 100.33 173.67 101.00 175.00 101.00 C 176.33 101.00 177.00 101.67 177.00 103.00 C 177.00 104.67 177.67 105.00 181.00 105.00 C 184.33 105.00 185.00 105.33 185.00 107.00 C 185.00 108.33 185.67 109.00 187.00 109.00 C 188.33 109.00 189.00 109.67 189.00 111.00 C 189.00 112.33 189.67 113.00 191.00 113.00 C 192.33 113.00 193.00 113.67 193.00 115.00 C 193.00 116.33 193.67 117.00 195.00 117.00 C 196.33 117.00 197.00 117.67 197.00 119.00 C 197.00 120.33 197.67 121.00 199.00 121.00 C 200.33 121.00 201.00 121.67 201.00 123.00 C 201.00 124.67 201.67 125.00 205.00 125.00 C 208.33 125.00 209.00 125.33 209.00 127.00 C 209.00 128.33 209.67 129.00 211.00 129.00 C 212.33 129.00 213.00 129.67 213.00 131.00 C 213.00 132.33 213.67 133.00 215.00 133.00 C 216.33 133.00 217.00 133.67 217.00 135.00 C 217.00 136.67 217.67 137.00 221.00 137.00 C 224.33 137.00 225.00 137.33 225.00 139.00 C 225.00 140.33 225.67 141.00 227.00 141.00 C 228.33 141.00 229.00 141.67 229.00 143.00 C 229.00 144.33 229.67 145.00 231.00 145.00 C 232.33 145.00 233.00 145.67 233.00 147.00 C 233.00 148.67 233.67 149.00 237.00 149.00 L 241.00 149.00 L 241.00 155.00 L 241.00 161.00 L 237.00 161.00 C 233.67 161.00 233.00 161.33 233.00 163.00 C 233.00 164.33 232.33 165.00 231.00 165.00 C 229.67 165.00 229.00 165.67 229.00 167.00 C 229.00 168.33 228.33 169.00 227.00 169.00 C 225.67 169.00 225.00 169.67 225.00 171.00 C 225.00 172.67 224.33 173.00 221.00 173.00 C 217.67 173.00 217.00 173.33 217.00 175.00 C 217.00 176.67 216.33 177.00 213.00 177.00 C 209.67 177.00 209.00 177.33 209.00 179.00 C 209.00 180.33 208.33 181.00 207.00 181.00 C 205.67 181.00 205.00 181.67 205.00 183.00 C 205.00 184.33 204.33 185.00 203.00 185.00 C 201.67 185.00 201.00 185.67 201.00 187.00 C 201.00 188.67 200.33 189.00 197.00 189.00 C 193.67 189.00 193.00 189.33 193.00 191.00 C 193.00 192.67 192.33 193.00 189.00 193.00 C 185.67 193.00 185.00 193.33 185.00 195.00 C 185.00 196.67 184.33 197.00 181.00 197.00 C 177.67 197.00 177.00 197.33 177.00 199.00 C 177.00 200.33 176.33 201.00 175.00 201.00 C 173.67 201.00 173.00 201.67 173.00 203.00 C 173.00 204.67 172.33 205.00 169.00 205.00 C 165.67 205.00 165.00 205.33 165.00 207.00 C 165.00 208.67 164.33 209.00 161.00 209.00 C 157.67 209.00 157.00 209.33 157.00 211.00 C 157.00 212.67 156.33 213.00 153.00 213.00 C 149.67 213.00 149.00 213.33 149.00 215.00 C 149.00 216.67 148.33 217.00 145.00 217.00 C 141.67 217.00 141.00 217.33 141.00 219.00 C 141.00 220.78 140.33 221.00 135.00 221.00 C 129.67 221.00 129.00 221.22 129.00 223.00 C 129.00 224.67 128.33 225.00 125.00 225.00 C 121.67 225.00 121.00 225.33 121.00 227.00 C 121.00 228.78 120.33 229.00 115.00 229.00 C 109.67 229.00 109.00 229.22 109.00 231.00 C 109.00 232.78 108.33 233.00 103.00 233.00 C 97.67 233.00 97.00 233.22 97.00 235.00 C 97.00 236.78 96.33 237.00 91.00 237.00 C 85.67 237.00 85.00 237.22 85.00 239.00 C 85.00 240.89 84.33 241.00 73.00 241.00 C 61.67 241.00 61.00 241.11 61.00 243.00 C 61.00 244.78 60.33 245.00 55.00 245.00 L 49.00 245.00 L 49.00 239.00ZM 161.00 135.00 C 161.00 133.67 161.67 133.00 163.00 133.00 C 164.67 133.00 165.00 132.33 165.00 129.00 C 165.00 125.67 164.67 125.00 163.00 125.00 C 161.67 125.00 161.00 124.33 161.00 123.00 C 161.00 121.67 160.33 121.00 159.00 121.00 C 157.67 121.00 157.00 120.33 157.00 119.00 C 157.00 117.33 156.33 117.00 153.00 117.00 C 149.67 117.00 149.00 117.33 149.00 119.00 C 149.00 120.33 148.33 121.00 147.00 121.00 C 145.17 121.00 145.00 121.67 145.00 129.00 L 145.00 137.00 L 153.00 137.00 C 160.33 137.00 161.00 136.83 161.00 135.00Z"/></g>
<g fill="#DAF101FF">
<path d="M 13.00 171.00 C 13.00 169.67 13.67 169.00 15.00 169.00 C 16.67 169.00 17.00 168.33 17.00 165.00 C 17.00 161.67 17.33 161.00 19.00 161.00 C 20.67 161.00 21.00 160.33 21.00 157.00 C 21.00 153.67 21.33 153.00 23.00 153.00 C 24.78 153.00 25.00 152.33 25.00 147.00 C 25.00 141.67 25.22 141.00 27.00 141.00 C 28.87 141.00 29.00 140.33 29.00 131.00 C 29.00 121.67 28.87 121.00 27.00 121.00 C 25.22 121.00 25.00 120.33 25.00 115.00 C 25.00 109.67 24.78 109.00 23.00 109.00 C 21.33 109.00 21.00 108.33 21.00 105.00 C 21.00 101.67 20.67 101.00 19.00 101.00 C 17.33 101.00 17.00 100.33 17.00 97.00 C 17.00 93.67 17.33 93.00 19.00 93.00 C 20.33 93.00 21.00 93.67 21.00 95.00 C 21.00 96.33 21.67 97.00 23.00 97.00 C 24.33 97.00 25.00 97.67 25.00 99.00 C 25.00 100.67 25.67 101.00 29.00 101.00 C 32.33 101.00 33.00 101.33 33.00 103.00 C 33.00 104.33 33.67 105.00 35.00 105.00 C 36.33 105.00 37.00 105.67 37.00 107.00 C 37.00 108.33 37.67 109.00 39.00 109.00 C 40.33 109.00 41.00 109.67 41.00 111.00 C 41.00 112.67 41.67 113.00 45.00 113.00 C 48.33 113.00 49.00 113.33 49.00 115.00 C 49.00 116.33 49.67 117.00 51.00 117.00 C 52.33 117.00 53.00 117.67 53.00 119.00 C 53.00 120.33 53.67 121.00 55.00 121.00 C 56.33 121.00 57.00 121.67 57.00 123.00 C 57.00 124.67 57.67 125.00 61.00 125.00 C 64.33 125.00 65.00 125.33 65.00 127.00 C 65.00 128.33 65.67 129.00 67.00 129.00 C 68.33 129.00 69.00 129.67 69.00 131.00 C 69.00 132.33 69.67 133.00 71.00 133.00 C 72.33 133.00 73.00 133.67 73.00 135.00 C 73.00 136.33 73.67 137.00 75.00 137.00 C 76.33 137.00 77.00 137.67 77.00 139.00 C 77.00 140.33 77.67 141.00 79.00 141.00 C 80.33 141.00 81.00 141.67 81.00 143.00 C 81.00 144.33 80.33 145.00 79.00 145.00 C 77.67 145.00 77.00 145.67 77.00 147.00 C 77.00 148.33 76.33 149.00 75.00 149.00 C 73.67 149.00 73.00 149.67 73.00 151.00 C 73.00 152.67 72.33 153.00 69.00 153.00 C 65.67 153.00 65.00 153.33 65.00 155.00 C 65.00 156.67 64.33 157.00 61.00 157.00 C 57.67 157.00 57.00 157.33 57.00 159.00 C 57.00 160.33 56.33 161.00 55.00 161.00 C 53.67 161.00 53.00 161.67 53.00 163.00 C 53.00 164.78 52.33 165.00 47.00 165.00 C 41.67 165.00 41.00 165.22 41.00 167.00 C 41.00 168.67 40.33 169.00 37.00 169.00 C 33.67 169.00 33.00 169.33 33.00 171.00 C 33.00 172.87 32.33 173.00 23.00 173.00 C 13.67 173.00 13.00 172.87 13.00 171.00Z"/></g>
<g fill="#DAF101FF">
<path d="M 185.00 79.00 C 185.00 77.67 184.33 77.00 183.00 77.00 C 181.67 77.00 181.00 76.33 181.00 75.00 C 181.00 73.67 180.33 73.00 179.00 73.00 C 177.22 73.00 177.00 72.33 177.00 67.00 C 177.00 61.67 177.22 61.00 179.00 61.00 C 180.78 61.00 181.00 60.33 181.00 55.00 L 181.00 49.00 L 195.00 49.00 L 209.00 49.00 L 209.00 53.00 C 209.00 56.33 209.33 57.00 211.00 57.00 C 212.83 57.00 213.00 57.67 213.00 65.00 C 213.00 72.33 212.83 73.00 211.00 73.00 C 209.67 73.00 209.00 73.67 209.00 75.00 C 209.00 76.33 208.33 77.00 207.00 77.00 C 205.67 77.00 205.00 77.67 205.00 79.00 C 205.00 80.87 204.33 81.00 195.00 81.00 C 185.67 81.00 185.00 80.87 185.00 79.00Z"/></g>
<g fill="#DAF101FF">
<path d="M 205.00 107.00 C 205.00 101.67 204.78 101.00 203.00 101.00 C 201.67 101.00 201.00 100.33 201.00 99.00 C 201.00 97.67 201.67 97.00 203.00 97.00 C 204.33 97.00 205.00 96.33 205.00 95.00 C 205.00 93.67 205.67 93.00 207.00 93.00 C 208.33 93.00 209.00 92.33 209.00 91.00 C 209.00 89.17 209.67 89.00 217.00 89.00 L 225.00 89.00 L 225.00 93.00 C 225.00 96.33 225.33 97.00 227.00 97.00 C 228.78 97.00 229.00 97.67 229.00 103.00 C 229.00 108.33 228.78 109.00 227.00 109.00 C 225.67 109.00 225.00 109.67 225.00 111.00 C 225.00 112.87 224.33 113.00 215.00 113.00 L 205.00 113.00 L 205.00 107.00Z"/></g>
</svg>
