<?xml version="1.0" encoding="UTF-8"?>
<svg version="1.1" xmlns="http://www.w3.org/2000/svg" width="1024" height="1024">
<path d="M0 0 C2.70945938 1.27810973 5.04331047 2.67368936 7.40625 4.51171875 C8.05770996 5.01477539 8.70916992 5.51783203 9.38037109 6.03613281 C10.07984863 6.58108398 10.77932617 7.12603516 11.5 7.6875 C18.07908045 12.77179265 24.70732334 17.78253065 31.375 22.75 C37.54901841 27.35893041 43.60295924 32.04588556 49.5234375 36.9765625 C53.14723907 39.93733413 56.90159724 42.71210903 60.65625 45.50390625 C72.86824675 54.59284707 84.86197 63.97645442 96.86621094 73.33666992 C109.26685411 83.00321248 121.73717478 92.57481364 134.25195312 102.09301758 C138.73083096 105.50115862 143.19824062 108.92231231 147.64208984 112.37597656 C152.24269433 115.94972278 156.85926443 119.36974381 161.8046875 122.453125 C164.4031756 124.28408814 166.75414911 126.32476584 169.15283203 128.40771484 C177.42096688 135.53496511 186.10909119 142.16574889 194.94458008 148.56860352 C200.59045297 152.66973417 206.14299674 156.88811176 211.6875 161.125 C219.09821814 166.78703312 226.52701799 172.42030699 234 178 C241.9100252 183.90877525 249.80114777 189.84006027 257.64526367 195.83618164 C267.57298522 203.42486838 277.57683472 210.89780245 287.65722656 218.28222656 C291.61030059 221.1807081 295.55471802 224.09092628 299.5 227 C304.23614334 230.49119756 308.97321537 233.98109813 313.71484375 237.46484375 C322.68559359 244.05923602 331.61734803 250.70217723 340.51708984 257.39208984 C348.5099804 263.39492012 356.55500419 269.32551677 364.61035156 275.24414062 C368.72109761 278.26462342 372.82955185 281.28821362 376.9375 284.3125 C377.72777588 284.89354492 378.51805176 285.47458984 379.33227539 286.07324219 C382.82234318 288.64259021 386.30420639 291.22037576 389.75390625 293.84375 C390.31021729 294.26615967 390.86652832 294.68856934 391.43969727 295.1237793 C392.87939228 296.22061469 394.31489262 297.32295015 395.75 298.42578125 C397.99765856 300.15741222 397.99765856 300.15741222 401 301 C402.67374371 302.65955944 404.339361 304.32732739 406 306 C408.00973007 307.52227522 410.05489473 308.99840272 412.125 310.4375 C413.37466293 311.31503362 414.62330539 312.19402167 415.87109375 313.07421875 C416.53737793 313.5439209 417.20366211 314.01362305 417.89013672 314.49755859 C421.68925974 317.20292808 425.43683551 319.97803714 429.1875 322.75 C429.98583252 323.33934326 430.78416504 323.92868652 431.60668945 324.53588867 C434.89800286 326.96654348 438.18771993 329.39935459 441.47753906 331.83203125 C453.27552357 340.55699906 453.27552357 340.55699906 465.1875 349.125 C470.75741966 353.0756633 476.22975799 357.14517051 481.68383789 361.25390625 C493.48731955 370.14149968 505.3878849 378.89512755 517.4296875 387.45703125 C528.66596417 395.44903085 539.80410722 403.57410514 550.89331055 411.76855469 C556.23769499 415.71359667 561.60869573 419.6193712 567 423.5 C574.95754577 429.22806475 582.85407986 435.03620845 590.7421875 440.859375 C601.76361859 448.99458383 612.89176074 456.98400973 624 465 C622.26923697 468.76118496 620.33562354 470.60938691 617.0625 473.1875 C616.07507813 473.97382812 615.08765625 474.76015625 614.0703125 475.5703125 C613.05710937 476.37210938 612.04390625 477.17390625 611 478 C609.14305912 479.51744477 607.28881564 481.03819738 605.4375 482.5625 C568.62970671 512.64976923 530.4334122 540.89323683 490.80224609 567.13964844 C488.24427641 568.83783009 485.69266263 570.54491669 483.14453125 572.2578125 C466.7170578 583.2951875 449.95169083 593.78801255 433 604 C432.17725586 604.49580566 431.35451172 604.99161133 430.50683594 605.50244141 C408.67609559 618.61825755 386.40322192 630.9006864 363.76660156 642.56591797 C361.04197624 643.9782414 358.32818872 645.40937698 355.6171875 646.84765625 C329.94307832 660.44294504 303.78222984 672.88956581 277.00592041 684.15490723 C274.92636801 685.0310211 272.84852449 685.9110903 270.77099609 686.79199219 C240.06757022 699.80130559 209.1749055 712.24376681 177.53759766 722.81445312 C173.93018849 724.02339577 170.33004419 725.25232168 166.73046875 726.484375 C134.25314794 737.54144407 101.25773157 746.61096278 68 755 C67.31929443 755.17188843 66.63858887 755.34377686 65.93725586 755.52087402 C48.0772033 760.01490662 30.05106967 763.68202706 12 767.3125 C10.36985962 767.64134689 10.36985962 767.64134689 8.70678711 767.97683716 C-2.82561417 770.29595704 -14.31817136 772.56419426 -26 774 C-24.74996941 770.24990823 -23.07467037 769.41325872 -20 767 C-18.61944803 765.4576646 -17.28817675 763.87028482 -16 762.25 C-15.22011719 761.27546875 -14.44023437 760.3009375 -13.63671875 759.296875 C-13.21438965 758.76642578 -12.79206055 758.23597656 -12.35693359 757.68945312 C-10.92723499 755.90940376 -9.47609107 754.14875097 -8.01953125 752.390625 C0.38928929 742.21221028 8.25830385 731.69163943 16 721 C16.56783203 720.2177002 17.13566406 719.43540039 17.72070312 718.62939453 C21.00610828 714.10206096 24.27822446 709.56541173 27.54199219 705.02246094 C28.85629853 703.19933405 30.17975753 701.38343341 31.5078125 699.5703125 C53.54765062 669.33959672 72.66993145 636.81078252 89.69824219 603.53613281 C90.79989431 601.38985332 91.91532817 599.25194117 93.0390625 597.1171875 C119.12494744 547.01115069 136.63485503 491.61766566 146 436 C146.18546387 434.90333008 146.37092773 433.80666016 146.56201172 432.67675781 C154.14679813 386.71758912 152.61663476 341.56400217 146.12109375 295.59765625 C146.02321564 294.9030278 145.92533752 294.20839935 145.82449341 293.49272156 C144.77222901 286.17548295 143.12823094 279.01858492 141.5 271.8125 C141.27441406 270.80251953 141.04882812 269.79253906 140.81640625 268.75195312 C140.59855469 267.78837891 140.38070312 266.82480469 140.15625 265.83203125 C139.85944336 264.51295776 139.85944336 264.51295776 139.55664062 263.16723633 C139.07406856 260.97259661 139.07406856 260.97259661 138 259 C137.73955286 257.34820701 137.50458472 255.69237512 137.28125 254.03515625 C135.86058587 245.2617718 133.15008784 236.90134487 130.5 228.4375 C130.23333527 227.5792865 129.96667053 226.721073 129.69192505 225.83685303 C114.29494168 170.15499499 114.29494168 170.15499499 85 122 C84.05464344 120.09732035 83.14441856 118.17714927 82.25 116.25 C77.1240662 105.61579167 70.44903915 95.86206296 64 86 C63.6066748 85.39414063 63.21334961 84.78828125 62.80810547 84.1640625 C53.44182629 69.7417313 43.4698015 55.64131071 33 42 C32.18203455 40.9246747 31.36433676 39.84914576 30.546875 38.7734375 C23.42666163 29.43046855 16.1579496 20.22216272 8.21484375 11.55859375 C7 10 7 10 7 8 C6.34 8 5.68 8 5 8 C0 2.52380952 0 2.52380952 0 0 Z M323.1484375 325.7578125 C311.26999351 332.62571285 303.58775081 342.7481343 300 356 C297.35440562 369.00750569 299.57040585 382.59705667 306.8046875 393.79296875 C313.75943402 403.02775121 322.64326897 409.32550302 334 412 C336.25840624 412.23634443 336.25840624 412.23634443 338.25 412.125 C341.72441976 412.00918601 345.09127259 412.00480382 348.5625 412.1875 C359.22980515 412.10963646 368.65173733 406.98992011 376.33203125 399.82421875 C380.55351853 395.28944856 383.62283452 390.7102282 386 385 C386.391875 384.13375 386.78375 383.2675 387.1875 382.375 C391.1147365 370.89538561 389.45718481 358.04522447 384.74609375 347.08203125 C378.90774122 335.54850104 369.82138319 327.75180173 357.69921875 323.12109375 C353.45237532 321.94187315 349.37525587 321.91421067 345 322 C338.13625814 319.71208605 329.46953315 322.63149443 323.1484375 325.7578125 Z " fill="#0376B5" transform="translate(256,109)"/>
<path d="M0 0 C0.96679688 0.84175781 1.93359375 1.68351562 2.9296875 2.55078125 C7.22482538 6.23093839 11.65921932 9.71781799 16.125 13.1875 C16.91003906 13.80302734 17.69507813 14.41855469 18.50390625 15.05273438 C22.92512433 18.49779454 22.92512433 18.49779454 27.6171875 21.55078125 C30.38003058 23.23113335 32.64028845 25.23630203 35.06738281 27.36279297 C38.52331577 30.29046938 42.21062648 32.90409217 45.875 35.5625 C52.13823397 40.13966555 58.35462979 44.76574579 64.5 49.5 C71.26286823 54.70403702 78.10490209 59.79119831 84.984375 64.83984375 C90.01205232 68.53063461 95.01707266 72.2490395 100 76 C108.14963945 82.13061223 116.36023086 88.17710608 124.57666016 94.21777344 C129.34600926 97.72535438 134.11090562 101.2389817 138.87646484 104.75170898 C142.82071 107.65865573 146.76627545 110.56377129 150.71484375 113.46484375 C159.80519223 120.14745798 168.85079606 126.88517525 177.86425781 133.67114258 C182.5935375 137.22274435 187.35559236 140.71457298 192.1875 144.125 C197.6520002 147.99271468 203.03242763 151.96550742 208.375 156 C209.13192139 156.56477051 209.88884277 157.12954102 210.66870117 157.71142578 C211.36326416 158.23978027 212.05782715 158.76813477 212.7734375 159.3125 C213.39653809 159.78300781 214.01963867 160.25351562 214.66162109 160.73828125 C215.10328613 161.15464844 215.54495117 161.57101562 216 162 C216 162.66 216 163.32 216 164 C214.16186523 165.45776367 214.16186523 165.45776367 211.55859375 167.16796875 C210.11105713 168.12606445 210.11105713 168.12606445 208.63427734 169.10351562 C207.05187256 170.13508789 207.05187256 170.13508789 205.4375 171.1875 C204.35936035 171.89712891 203.2812207 172.60675781 202.17041016 173.33789062 C199.9106879 174.8248832 197.64810781 176.30738532 195.38330078 177.78662109 C192.1735913 179.88387901 188.97484986 181.99745746 185.77734375 184.11328125 C176.81259478 190.02835638 167.86286267 195.86284898 158.46484375 201.0703125 C155.91192973 202.4921158 153.39143514 203.93979993 150.87890625 205.4296875 C137.21044686 213.51680959 123.17652054 220.84648659 109 228 C108.12843262 228.44118164 107.25686523 228.88236328 106.35888672 229.33691406 C81.37235096 241.88369176 54.67815794 250.82080057 27.8125 258.375 C26.59457764 258.72127441 25.37665527 259.06754883 24.12182617 259.42431641 C17.40783337 261.27194944 10.9619711 262.62648441 4 263 C5 261 5 261 7.14453125 258.98046875 C10.96053216 255.23014301 13.75474455 250.76157299 16.6875 246.3125 C17.61006592 244.91463257 17.61006592 244.91463257 18.55126953 243.48852539 C46.21045171 201.12076796 59.43327124 150.29819976 49 100 C48.8448291 99.24267578 48.6896582 98.48535156 48.52978516 97.70507812 C41.48309014 64.11655022 25.39177332 32.27636786 2.16210938 6.96875 C0.8515625 5.50390625 0.8515625 5.50390625 -1 3 C-0.67 2.01 -0.34 1.02 0 0 Z " fill="#0471B1" transform="translate(116,378)"/>
<path d="M0 0 C9.39294913 7.93323406 14.62321603 17.77247881 17.0625 29.765625 C18.23343184 45.28047189 14.59363863 58.71459486 4.625 70.828125 C-4.5491166 80.54087345 -16.48373622 86.0615544 -29.84399414 86.44702148 C-45.60452769 86.49297056 -57.77599014 81.79857335 -69.27734375 70.7109375 C-72.85626241 66.8013894 -75.44559744 62.8719038 -77.6875 58.078125 C-78.09871094 57.21058594 -78.50992188 56.34304688 -78.93359375 55.44921875 C-83.53969625 43.98974574 -83.66183234 29.27610385 -79.0703125 17.78125 C-71.96172489 3.88536688 -61.1359172 -4.70618762 -46.484375 -9.66796875 C-29.9389354 -14.11072568 -13.62437246 -9.74301054 0 0 Z " fill="#007EBC" transform="translate(798.6875,236.921875)"/>
<path d="M0 0 C6.76531844 5.20556327 11.00914367 11.11498251 13.25 19.375 C14.20174538 29.9548672 13.77611818 39.22853151 7.296875 48.02734375 C-0.39206458 57.18148335 -8.5911499 61.54528643 -20.4375 62.75 C-31.05642193 62.3744782 -40.49227123 58.03958155 -47.75 50.375 C-54.77190086 40.91514188 -56.7827142 32.0704883 -55.75 20.375 C-53.39580264 10.61043139 -47.68395581 2.8576702 -39.1640625 -2.37109375 C-26.10866569 -9.15229501 -12.09500751 -8.20499158 0 0 Z " fill="#0179B8" transform="translate(858.75,363.625)"/>
<path d="M0 0 C0.66 0 1.32 0 2 0 C0.48318506 3.81346128 -1.74453026 5.67252097 -4.9375 8.1875 C-5.92492187 8.97382812 -6.91234375 9.76015625 -7.9296875 10.5703125 C-9.44949219 11.77300781 -9.44949219 11.77300781 -11 13 C-12.85694088 14.51744477 -14.71118436 16.03819738 -16.5625 17.5625 C-53.37029329 47.64976923 -91.5665878 75.89323683 -131.19775391 102.13964844 C-133.75572359 103.83783009 -136.30733737 105.54491669 -138.85546875 107.2578125 C-155.2829422 118.2951875 -172.04830917 128.78801255 -189 139 C-189.82274414 139.49580566 -190.64548828 139.99161133 -191.49316406 140.50244141 C-213.32390441 153.61825755 -235.59677808 165.9006864 -258.23339844 177.56591797 C-260.95802376 178.9782414 -263.67181128 180.40937698 -266.3828125 181.84765625 C-292.05692168 195.44294504 -318.21777016 207.88956581 -344.99407959 219.15490723 C-347.07363199 220.0310211 -349.15147551 220.9110903 -351.22900391 221.79199219 C-381.93242978 234.80130559 -412.8250945 247.24376681 -444.46240234 257.81445312 C-448.06981151 259.02339577 -451.66995581 260.25232168 -455.26953125 261.484375 C-487.74685206 272.54144407 -520.74226843 281.61096278 -554 290 C-554.68070557 290.17188843 -555.36141113 290.34377686 -556.06274414 290.52087402 C-573.9227967 295.01490662 -591.94893033 298.68202706 -610 302.3125 C-611.63014038 302.64134689 -611.63014038 302.64134689 -613.29321289 302.97683716 C-624.82561417 305.29595704 -636.31817136 307.56419426 -648 309 C-646.74996941 305.24990823 -645.07467037 304.41325872 -642 302 C-640.61944803 300.4576646 -639.28817675 298.87028482 -638 297.25 C-637.22011719 296.27546875 -636.44023438 295.3009375 -635.63671875 294.296875 C-635.0032251 293.50120117 -635.0032251 293.50120117 -634.35693359 292.68945312 C-632.92723499 290.90940376 -631.47609107 289.14875097 -630.01953125 287.390625 C-621.61071071 277.21221028 -613.74169615 266.69163943 -606 256 C-605.43216797 255.2177002 -604.86433594 254.43540039 -604.27929688 253.62939453 C-600.99389172 249.10206096 -597.72177554 244.56541173 -594.45800781 240.02246094 C-593.14370147 238.19933405 -591.82024247 236.38343341 -590.4921875 234.5703125 C-568.45234938 204.33959672 -549.33006855 171.81078252 -532.30175781 138.53613281 C-531.20010569 136.38985332 -530.08467183 134.25194117 -528.9609375 132.1171875 C-524.16318932 122.89598356 -519.99795191 113.38490679 -515.8125 103.875 C-515.51208801 103.19567413 -515.21167603 102.51634827 -514.90216064 101.81643677 C-510.8646487 92.66648369 -507.22951211 83.46794375 -504 74 C-503.34 74 -502.68 74 -502 74 C-502.62325734 77.56357955 -503.56800466 80.7516461 -504.8984375 84.11328125 C-505.2893457 85.10110596 -505.68025391 86.08893066 -506.08300781 87.10668945 C-506.72254395 88.69356567 -506.72254395 88.69356567 -507.375 90.3125 C-507.82198242 91.42262451 -508.26896484 92.53274902 -508.72949219 93.67651367 C-524.5450342 132.5412546 -544.00676876 170.37050531 -567.74414062 205.01391602 C-568.9197101 206.87302521 -569.79878336 208.65379985 -570.625 210.6875 C-572.36885334 214.88860122 -574.44254436 218.53173785 -577.7734375 221.671875 C-580.82718111 224.86491218 -583.20865477 228.41482179 -585.6875 232.0625 C-586.18572266 232.78244141 -586.68394531 233.50238281 -587.19726562 234.24414062 C-590.03786919 238.39096346 -590.03786919 238.39096346 -592 243 C-592.66 243 -593.32 243 -594 243 C-594.103125 243.5775 -594.20625 244.155 -594.3125 244.75 C-595.11056805 247.36185908 -596.31467879 248.86093846 -598 251 C-598.474375 251.825 -598.94875 252.65 -599.4375 253.5 C-601.04609317 256.07374907 -602.8619899 257.8619899 -605 260 C-605.42152344 260.71542969 -605.84304688 261.43085937 -606.27734375 262.16796875 C-608.4611616 265.75814548 -610.9729442 269.00834931 -613.5625 272.3125 C-614.05685547 272.95767578 -614.55121094 273.60285156 -615.06054688 274.26757812 C-616.3249248 275.88440781 -617.65751025 277.44741795 -619 279 C-619.66 279 -620.32 279 -621 279 C-621.061875 279.70125 -621.12375 280.4025 -621.1875 281.125 C-622.5409667 285.91418988 -625.9581133 288.98482835 -629.4375 292.375 C-632.65460562 295.67057161 -635.3080127 299.27192137 -638 303 C-636.68 303.66 -635.36 304.32 -634 305 C-633.67 304.34 -633.34 303.68 -633 303 C-629.71585695 302.04932701 -628.30306592 301.89897803 -625 303 C-625 302.34 -625 301.68 -625 301 C-624.13375 301.04125 -623.2675 301.0825 -622.375 301.125 C-618.86329042 300.99493668 -616.28996333 300.16976474 -613 299 C-612.01 299 -611.02 299 -610 299 C-608.32900023 298.68911632 -606.66128463 298.35919668 -605 298 C-605 297.67 -605 297.34 -605 297 C-600.11825944 295.95027291 -595.28777073 294.97179291 -590.3125 294.5 C-586.37503516 294.11805897 -582.80238992 293.09684325 -579 292 C-576.0625 291.875 -576.0625 291.875 -574 292 C-574 291.34 -574 290.68 -574 290 C-573.27554688 289.95101563 -572.55109375 289.90203125 -571.8046875 289.8515625 C-566.54269773 289.44463529 -561.9751466 288.85121734 -557 287 C-555 286.66666667 -553 286.33333333 -551 286 C-548.98777953 285.3711811 -546.98723268 284.70381157 -545 284 C-542.20840036 283.03148584 -539.52207029 282.10201373 -536.62109375 281.53515625 C-534.04826418 281.00985424 -531.62494365 280.29870404 -529.125 279.5 C-525.08966745 278.25882045 -521.18569656 277.57450737 -517 277 C-515.33032028 276.3409159 -513.66392045 275.67349161 -512 275 C-510.56673695 274.6686097 -509.12856932 274.35810396 -507.6875 274.0625 C-503.94634439 273.27586629 -500.5433868 272.13653863 -496.99609375 270.73046875 C-493.72854591 269.5347125 -490.38687983 268.78623996 -487 268 C-487 267.34 -487 266.68 -487 266 C-486.443125 265.96261719 -485.88625 265.92523437 -485.3125 265.88671875 C-479.6925959 265.40257161 -475.23198717 264.07475353 -470 262 C-469.01 262 -468.02 262 -467 262 C-466.67 261.34 -466.34 260.68 -466 260 C-464.02 260 -462.04 260 -460 260 C-460 259.34 -460 258.68 -460 258 C-458.948125 258.0928125 -458.948125 258.0928125 -457.875 258.1875 C-454.31172705 257.95511263 -452.15708255 256.64168292 -449 255 C-446.66989091 254.32215008 -444.33640176 253.65583207 -442 253 C-440.2675 252.195625 -440.2675 252.195625 -438.5 251.375 C-434.73506593 249.89591876 -432.00604332 249.75473204 -428 250 C-428 249.34 -428 248.68 -428 248 C-424.93978855 246.84798903 -421.87645956 245.70450097 -418.8125 244.5625 C-417.94818359 244.23701172 -417.08386719 243.91152344 -416.19335938 243.57617188 C-415.35224609 243.26357422 -414.51113281 242.95097656 -413.64453125 242.62890625 C-412.48981323 242.1968689 -412.48981323 242.1968689 -411.31176758 241.75610352 C-408.89294999 240.96498745 -406.50262397 240.45097555 -404 240 C-404 239.34 -404 238.68 -404 238 C-403.360625 237.896875 -402.72125 237.79375 -402.0625 237.6875 C-397.19397783 236.59456645 -392.25406224 235.21498455 -387.84765625 232.83984375 C-387.23792969 232.56269531 -386.62820313 232.28554688 -386 232 C-385.34 232.33 -384.68 232.66 -384 233 C-384 232.34 -384 231.68 -384 231 C-377.375 229 -377.375 229 -374 229 C-374 228.34 -374 227.68 -374 227 C-373.46632813 226.84144531 -372.93265625 226.68289063 -372.3828125 226.51953125 C-367.04278001 224.84730654 -362.20224507 222.71133796 -357.26171875 220.0859375 C-354.0334928 218.535943 -351.58155004 218 -348 218 C-348 217.34 -348 216.68 -348 216 C-347.175 215.6596875 -346.35 215.319375 -345.5 214.96875 C-338.03512374 211.836168 -330.76467268 208.48281961 -323.59570312 204.71679688 C-318.18666692 201.92628897 -313.18335454 200 -307 200 C-306.67 199.01 -306.34 198.02 -306 197 C-303.41262812 194.68028728 -301.35827717 193.71236182 -298 193 C-297.175 192.649375 -296.35 192.29875 -295.5 191.9375 C-293 191 -293 191 -289 191 C-288.67 190.01 -288.34 189.02 -288 188 C-286.0153048 187.28906441 -284.0113092 186.6317276 -282 186 C-279.58337386 184.7082622 -277.22781792 183.39651128 -274.875 182 C-264.14782129 175.71400993 -264.14782129 175.71400993 -259 176 C-259 175.34 -259 174.68 -259 174 C-257.7934375 173.566875 -257.7934375 173.566875 -256.5625 173.125 C-253.8673532 172.26737432 -253.8673532 172.26737432 -253 170 C-251.07069883 169.53430661 -249.14024464 169.07264449 -247.203125 168.640625 C-243.78391496 167.64638662 -241.04456197 165.82673718 -238 164 C-237.34 164 -236.68 164 -236 164 C-236 163.34 -236 162.68 -236 162 C-235.01 162 -234.02 162 -233 162 C-233 161.34 -233 160.68 -233 160 C-232.2265625 159.69707031 -231.453125 159.39414062 -230.65625 159.08203125 C-219.87905465 154.82863232 -219.87905465 154.82863232 -210.875 147.75 C-208.39327124 145.43371983 -206.31673212 145.3015211 -203 145 C-203 144.34 -203 143.68 -203 143 C-202.07445312 142.63648438 -201.14890625 142.27296875 -200.1953125 141.8984375 C-194.8371056 139.59821078 -189.88670491 136.58797867 -184.875 133.625 C-183.89917969 133.06039062 -182.92335938 132.49578125 -181.91796875 131.9140625 C-176.9696027 128.99769942 -172.85935178 126.24979204 -169 122 C-164.7085385 119.13902567 -160.48973243 116.60581271 -155.71484375 114.6640625 C-151.75464646 112.99061398 -148.34214047 110.74646184 -144.8125 108.3125 C-143.48053333 107.40875898 -142.14850139 106.50511415 -140.81640625 105.6015625 C-140.16559082 105.1571582 -139.51477539 104.71275391 -138.84423828 104.25488281 C-136.32798198 102.54273595 -133.788908 100.86582174 -131.25 99.1875 C-107.95083865 83.64425894 -85.10668838 67.45155513 -62.96875 50.2890625 C-60.02156543 48.01662808 -57.04722034 45.7853312 -54.0625 43.5625 C-47.80987993 38.88957627 -41.6836383 34.0643575 -35.55859375 29.2265625 C-33.48676823 27.59610332 -31.39998212 25.98534335 -29.3125 24.375 C-23.08550192 19.54073162 -17.01023001 14.51497366 -10.9609375 9.4609375 C-9.98382812 8.64882813 -9.00671875 7.83671875 -8 7 C-7.113125 6.2575 -6.22625 5.515 -5.3125 4.75 C-3 3 -3 3 0 2 C0 1.34 0 0.68 0 0 Z " fill="#0C4175" transform="translate(878,574)"/>
<path d="M0 0 C4.4479904 2.93163004 7.44965126 6.61110504 8.75 11.8125 C9.00663034 16.85005848 8.29447014 20.68752698 5.125 24.6875 C1.49414016 28.39597917 -2.15343772 30.58699546 -7.44921875 30.97265625 C-12.81524955 30.74489603 -15.92462863 29.08098573 -19.83984375 25.48046875 C-23.37522009 21.29873552 -23.68406217 17.61498508 -23.56640625 12.28125 C-22.93825057 7.38008473 -20.22590073 4.6931909 -16.6875 1.5 C-11.46253662 -2.11728234 -5.79497145 -2.11739341 0 0 Z " fill="#0178B8" transform="translate(808.25,452.1875)"/>
<path d="M0 0 C0 0.66 0 1.32 0 2 C-1.83813477 3.45776367 -1.83813477 3.45776367 -4.44140625 5.16796875 C-5.40643066 5.80669922 -6.37145508 6.44542969 -7.36572266 7.10351562 C-8.94812744 8.13508789 -8.94812744 8.13508789 -10.5625 9.1875 C-11.64063965 9.89712891 -12.7187793 10.60675781 -13.82958984 11.33789062 C-16.0893121 12.8248832 -18.35189219 14.30738532 -20.61669922 15.78662109 C-23.8264087 17.88387901 -27.02515014 19.99745746 -30.22265625 22.11328125 C-39.18740522 28.02835638 -48.13713733 33.86284898 -57.53515625 39.0703125 C-60.08807027 40.4921158 -62.60856486 41.93979993 -65.12109375 43.4296875 C-78.78955314 51.51680959 -92.82347946 58.84648659 -107 66 C-107.87156738 66.44118164 -108.74313477 66.88236328 -109.64111328 67.33691406 C-134.62764904 79.88369176 -161.32184206 88.82080057 -188.1875 96.375 C-189.40542236 96.72127441 -190.62334473 97.06754883 -191.87817383 97.42431641 C-198.59216663 99.27194944 -205.0380289 100.62648441 -212 101 C-211 99 -211 99 -208.85546875 96.98046875 C-205.03946784 93.23014301 -202.24525545 88.76157299 -199.3125 84.3125 C-198.38993408 82.91463257 -198.38993408 82.91463257 -197.44873047 81.48852539 C-185.49633634 63.18009777 -176.13948791 44.33289851 -170.5456543 23.11499023 C-170.08347015 21.3948596 -169.5485544 19.69456533 -169 18 C-168.34 17.67 -167.68 17.34 -167 17 C-167.46817275 24.80287912 -169.67547977 31.34606092 -172.4375 38.625 C-173.25074279 40.80392538 -174.0619974 42.98359403 -174.87109375 45.1640625 C-175.24790283 46.17581543 -175.62471191 47.18756836 -176.01293945 48.22998047 C-176.83360329 50.53303559 -177.55565519 52.81402959 -178.1953125 55.171875 C-179.04615535 58.16221591 -179.73412797 59.00603261 -182 61 C-184.53966993 64.80950489 -186.26368253 68.78322901 -188 73 C-188.66 73 -189.32 73 -190 73 C-190.268125 74.134375 -190.53625 75.26875 -190.8125 76.4375 C-191.204375 77.613125 -191.59625 78.78875 -192 80 C-193.485 80.495 -193.485 80.495 -195 81 C-195.46598452 82.66423044 -195.92453796 84.33126582 -196.328125 86.01171875 C-197.50877351 89.50561463 -199.75459688 92.10461177 -202 95 C-199.69 95.33 -197.38 95.66 -195 96 C-195 95.34 -195 94.68 -195 94 C-194.45214844 93.90203125 -193.90429688 93.8040625 -193.33984375 93.703125 C-180.56887858 91.29429255 -168.31581283 87.52850033 -156 83.4375 C-154.24538452 82.85536743 -154.24538452 82.85536743 -152.45532227 82.26147461 C-146.85653783 80.37963521 -141.38561977 78.42457397 -136 76 C-134.23245193 75.26290534 -132.46196884 74.53277429 -130.6875 73.8125 C-129.42486328 73.29623047 -129.42486328 73.29623047 -128.13671875 72.76953125 C-126 72 -126 72 -124 72 C-123.505 70.515 -123.505 70.515 -123 69 C-121.13671875 68.26171875 -121.13671875 68.26171875 -118.6875 67.6875 C-113.20815615 66.2168536 -108.46895312 63.85533471 -103.46875 61.20703125 C-101 60 -101 60 -99 60 C-99 59.34 -99 58.68 -99 58 C-98.07380859 57.65388672 -98.07380859 57.65388672 -97.12890625 57.30078125 C-86.69102261 53.90262275 -86.69102261 53.90262275 -79 47 C-77.00180746 46.32793524 -75.00137597 45.66252446 -73 45 C-70.49786507 43.71287072 -68.06153439 42.39971124 -65.625 41 C-64.92729492 40.60264648 -64.22958984 40.20529297 -63.51074219 39.79589844 C-48.98242104 31.45206245 -35.00535938 22.18318889 -21 13 C-20.24074219 12.50338867 -19.48148438 12.00677734 -18.69921875 11.49511719 C-16.60905902 10.12611825 -14.52253938 8.75178135 -12.4375 7.375 C-11.82447021 6.97345703 -11.21144043 6.57191406 -10.57983398 6.15820312 C-8.29864577 4.64327773 -6.19388876 3.20051366 -4.28515625 1.2265625 C-3 0 -3 0 0 0 Z " fill="#0D487C" transform="translate(332,540)"/>
<path d="M0 0 C0.79921875 0.00902344 1.5984375 0.01804688 2.421875 0.02734375 C3.02515625 0.03894531 3.6284375 0.05054688 4.25 0.0625 C4.25 0.3925 4.25 0.7225 4.25 1.0625 C2.90808594 1.30033203 2.90808594 1.30033203 1.5390625 1.54296875 C-13.19766379 4.38662276 -24.25023033 10.03195713 -33.1875 22.5 C-39.98966865 33.79198534 -40.64259079 47.69577948 -38.05859375 60.484375 C-34.82126053 70.07446673 -27.93285826 81.27542882 -18.7421875 86.12109375 C-16.76301827 86.87007348 -14.78270768 87.47614201 -12.75 88.0625 C-11.24580851 88.61369346 -9.74562713 89.17597409 -8.25 89.75 C-7.095 90.183125 -5.94 90.61625 -4.75 91.0625 C-4.75 91.7225 -4.75 92.3825 -4.75 93.0625 C3.5 93.0625 11.75 93.0625 20.25 93.0625 C20.25 92.4025 20.25 91.7425 20.25 91.0625 C20.80171875 90.94132812 21.3534375 90.82015625 21.921875 90.6953125 C32.27852079 87.88025106 41.20829748 82.00421974 47.25 73.0625 C48.02833534 70.88035432 48.02833534 70.88035432 48.25 69.0625 C48.91 69.0625 49.57 69.0625 50.25 69.0625 C50.72970123 67.31264646 51.20873924 65.56261109 51.6875 63.8125 C51.95433594 62.83796875 52.22117187 61.8634375 52.49609375 60.859375 C52.74488281 59.93640625 52.99367188 59.0134375 53.25 58.0625 C53.44078125 57.41667969 53.6315625 56.77085937 53.828125 56.10546875 C56.20220763 44.6087538 53.79305513 32.40183331 47.625 22.5 C47.22023438 21.92121094 46.81546875 21.34242188 46.3984375 20.74609375 C45.15581422 18.92442493 44.19841671 17.05069466 43.25 15.0625 C48.08815361 16.67521787 49.83609619 20.74022198 52.25 25.0625 C58.24684284 38.56482539 58.37537377 50.98952683 54.25 65.0625 C48.77217338 78.30484722 39.30792639 87.68159907 26.21875 93.3828125 C12.75866403 98.14714986 -1.67505572 97.42475099 -14.625 91.5625 C-24.84562165 86.19145903 -32.84511373 78.5504401 -37.75 68.0625 C-38.16121094 67.19496094 -38.57242188 66.32742188 -38.99609375 65.43359375 C-43.60219625 53.97412074 -43.72433234 39.26047885 -39.1328125 27.765625 C-32.44265779 14.68769545 -22.45475834 6.16347235 -8.75 1.0625 C-5.75940375 0.13876371 -3.12573243 -0.04596665 0 0 Z " fill="#095185" transform="translate(758.75,226.9375)"/>
<path d="M0 0 C0.66 0 1.32 0 2 0 C1.37674266 3.56357955 0.43199534 6.7516461 -0.8984375 10.11328125 C-1.2893457 11.10110596 -1.68025391 12.08893066 -2.08300781 13.10668945 C-2.50936523 14.16460693 -2.93572266 15.22252441 -3.375 16.3125 C-3.82198242 17.42262451 -4.26896484 18.53274902 -4.72949219 19.67651367 C-20.5450342 58.5412546 -40.00676876 96.37050531 -63.74414062 131.01391602 C-64.9197101 132.87302521 -65.79878336 134.65379985 -66.625 136.6875 C-68.08493371 140.20461303 -69.81024024 142.90413275 -72 146 C-72 143 -72 143 -70.5625 140.625 C-68.88385613 138.15386166 -68.88385613 138.15386166 -68.5690918 135.61450195 C-67.94164712 132.7319172 -66.95597632 130.99363982 -65.33203125 128.54296875 C-64.77572021 127.69049561 -64.21940918 126.83802246 -63.64624023 125.9597168 C-63.04110596 125.04488525 -62.43597168 124.13005371 -61.8125 123.1875 C-49.55690538 104.26738396 -38.57233421 84.78017028 -28.36767578 64.68408203 C-27.22745416 62.44638183 -26.07141598 60.21878146 -24.90234375 57.99609375 C-20.12296978 48.81600874 -15.98029276 39.34356853 -11.8125 29.875 C-11.51199738 29.19549286 -11.21149475 28.51598572 -10.90188599 27.81588745 C-6.86447299 18.66612183 -3.22944352 9.46774268 0 0 Z " fill="#0C497E" transform="translate(374,648)"/>
<path d="M0 0 C0.66 0.33 1.32 0.66 2 1 C1.51402344 1.99386719 1.02804687 2.98773438 0.52734375 4.01171875 C-2.70202956 11.58371428 -2.2018788 21.81455031 0.5625 29.5 C2.83657371 34.29991986 6.02846421 38.47076982 10 42 C10.99 42.33 11.98 42.66 13 43 C13 43.66 13 44.32 13 45 C14.32 45 15.64 45 17 45 C17 45.66 17 46.32 17 47 C25.33234569 49.11615129 31.73487781 49.71620114 39.921875 46.72265625 C42 46 42 46 44.875 45.5 C47.4681776 44.88984057 48.21551501 43.93319207 50 42 C50.78375 41.5875 51.5675 41.175 52.375 40.75 C58.98807156 36.34128563 61.40880538 29.53313815 63 22 C63.46776433 18.67115291 63.79300565 15.35473595 64 12 C64.33 12 64.66 12 65 12 C65.65348053 23.58112716 64.38909216 31.33185405 56.8125 40.3125 C49.50064328 47.94799628 41.75884089 51.31266025 31.3125 52.375 C20.69357807 51.9994782 11.25772877 47.66458155 4 40 C-2.99684703 30.57389423 -5.0977102 21.6663619 -4 10 C-2.98910123 6.47503994 -1.68045611 3.25588371 0 0 Z " fill="#095082" transform="translate(807,374)"/>
<path d="M0 0 C3.47672866 1.26899268 6.26234878 2.7267647 9.22265625 4.94140625 C10.00189453 5.52019531 10.78113281 6.09898437 11.58398438 6.6953125 C12.40189453 7.31148438 13.21980469 7.92765625 14.0625 8.5625 C14.91521484 9.19800781 15.76792969 9.83351563 16.64648438 10.48828125 C19.10183545 12.32002156 21.55180216 14.15871499 24 16 C25.08191125 16.81135795 26.16392222 17.62258298 27.24609375 18.43359375 C29.10119536 19.82557779 30.95534371 21.21883303 32.80859375 22.61328125 C39.34207686 27.49939897 45.9228498 32.32183779 52.49462891 37.15625 C54.96999678 38.97792006 57.44421286 40.80114168 59.91796875 42.625 C67.2504016 48.03102824 74.586209 53.43213842 81.9375 58.8125 C87.27482075 62.71982957 92.57449467 66.67424394 97.859375 70.65234375 C103.87252517 75.14724829 109.93889064 79.57009083 116 84 C114.10083008 84.56542969 114.10083008 84.56542969 112 85 C110.38671875 83.953125 110.38671875 83.953125 108.6875 82.25 C104.90623383 78.71518507 100.93685522 75.65246699 96.75 72.625 C96.09515625 72.1501416 95.4403125 71.6752832 94.765625 71.18603516 C93.45487361 70.23561113 92.1438425 69.28557274 90.83251953 68.3359375 C88.26173649 66.46179351 85.72451531 64.54452202 83.1875 62.625 C78.19666239 58.8650563 73.13767644 55.20759606 68.0625 51.5625 C61.74433552 47.02252507 55.54758744 42.37034578 49.40625 37.59375 C45.34062153 34.46634348 41.16785895 31.48893912 37 28.5 C30.55918637 23.88092598 24.23037758 19.15363254 17.9765625 14.28515625 C14.1640358 11.35821646 10.26465234 8.56298737 6.33984375 5.7890625 C4.01817691 4.0138982 2.0149362 2.11265827 0 0 Z " fill="#05679C" transform="translate(215,455)"/>
<path d="M0 0 C5.05262034 1.62476419 8.90822251 4.63404647 13.125 7.75 C13.91197266 8.32492187 14.69894531 8.89984375 15.50976562 9.4921875 C18.01101398 11.32207941 20.50618296 13.15999631 23 15 C24.59114381 16.17187774 26.18228962 17.34375278 27.7734375 18.515625 C30.14691632 20.26471065 32.51977718 22.01461177 34.89111328 23.76660156 C40.23593103 27.71270398 45.60790362 31.61880104 51 35.5 C57.34178193 40.06499259 63.65068824 44.67208658 69.9375 49.3125 C70.74429199 49.90788574 71.55108398 50.50327148 72.38232422 51.11669922 C73.91456442 52.24754012 75.44679168 53.37839854 76.97900391 54.50927734 C86.88535369 61.8163771 96.93105293 68.91963419 107 76 C106.34 76.66 105.68 77.32 105 78 C104.34257813 77.50113281 103.68515625 77.00226563 103.0078125 76.48828125 C96.80952221 71.81016785 90.55570736 67.21985384 84.25 62.6875 C78.28286231 58.39818695 72.36566924 54.0520654 66.5 49.625 C61.6901503 45.99576556 56.84326236 42.4570259 51.8828125 39.03515625 C46.03539619 34.90710219 40.30713881 30.61298923 34.55078125 26.359375 C31.12728582 23.82966415 27.69527281 21.31251805 24.25 18.8125 C23.42886719 18.21566406 22.60773437 17.61882813 21.76171875 17.00390625 C20.22708296 15.89037278 18.69193958 14.77753456 17.15478516 13.66748047 C15.12161391 12.19828337 13.09192087 10.72437183 11.0625 9.25 C10.42280273 8.78956299 9.78310547 8.32912598 9.12402344 7.85473633 C5.81160086 5.4425433 2.80690371 3.01091426 0 0 Z " fill="#066297" transform="translate(772,497)"/>
<path d="M0 0 C0.66 0 1.32 0 2 0 C-1.63126974 7.60511209 -6.8843147 14.34235282 -12 21 C-10.68 21.66 -9.36 22.32 -8 23 C-7.67 22.34 -7.34 21.68 -7 21 C-3.71585695 20.04932701 -2.30306592 19.89897803 1 21 C1 20.34 1 19.68 1 19 C2.299375 19.061875 2.299375 19.061875 3.625 19.125 C7.13670958 18.99493668 9.71003667 18.16976474 13 17 C13.99 17 14.98 17 16 17 C18.06343295 16.84531159 20.12589054 16.67734275 22.1875 16.5 C23.27417969 16.4071875 24.36085938 16.314375 25.48046875 16.21875 C26.31191406 16.1465625 27.14335937 16.074375 28 16 C27.67 16.66 27.34 17.32 27 18 C24.57063804 18.65572711 22.20507789 19.18623538 19.73828125 19.65625 C18.99603806 19.80404907 18.25379486 19.95184814 17.48905945 20.10412598 C15.90683757 20.41740407 14.32377888 20.7264798 12.73999023 21.03173828 C10.36573981 21.48973007 7.99430552 21.96038477 5.62304688 22.43359375 C-3.55360118 24.2461579 -12.721461 25.79370564 -22 27 C-20.74803148 23.24409444 -19.07791405 22.42596395 -16 20 C-14.49488356 18.31139763 -13.03745338 16.57934151 -11.625 14.8125 C-10.46677734 13.37390625 -10.46677734 13.37390625 -9.28515625 11.90625 C-6.60903419 8.50277168 -3.98738175 5.06098104 -1.41015625 1.58203125 C-0.94480469 1.05996094 -0.47945312 0.53789063 0 0 Z " fill="#103663" transform="translate(252,856)"/>
<path d="M0 0 C4.4479904 2.93163004 7.44965126 6.61110504 8.75 11.8125 C9.00663034 16.85005848 8.29447014 20.68752698 5.125 24.6875 C1.49414016 28.39597917 -2.15343772 30.58699546 -7.44921875 30.97265625 C-12.81524955 30.74489603 -15.92462863 29.08098573 -19.83984375 25.48046875 C-23.37522009 21.29873552 -23.68406217 17.61498508 -23.56640625 12.28125 C-22.93825057 7.38008473 -20.22590073 4.6931909 -16.6875 1.5 C-11.46253662 -2.11728234 -5.79497145 -2.11739341 0 0 Z M-20.125 6.9375 C-21.82460974 11.28094711 -22.15610381 15.22490355 -21.25 19.8125 C-19.22991861 23.2410785 -16.83305829 26.02097086 -13.25 27.8125 C-11.17435324 28.01008231 -11.17435324 28.01008231 -8.875 28 C-8.10414063 28.01417969 -7.33328125 28.02835937 -6.5390625 28.04296875 C-4.01020017 27.78835633 -2.44755816 27.0535838 -0.25 25.8125 C0.430625 25.544375 1.11125 25.27625 1.8125 25 C4.5739146 23.30752008 5.45785635 21.78443039 6.75 18.8125 C7.47310712 12.40783693 6.53233196 9.0259846 2.75 3.8125 C-1.01880418 0.37623737 -4.90892606 0.30040383 -9.8125 0.4609375 C-14.47526146 1.13345117 -17.10190292 3.51132331 -20.125 6.9375 Z " fill="#0B578B" transform="translate(808.25,452.1875)"/>
<path d="M0 0 C0.79921875 0.00902344 1.5984375 0.01804688 2.421875 0.02734375 C3.02515625 0.03894531 3.6284375 0.05054688 4.25 0.0625 C4.25 0.3925 4.25 0.7225 4.25 1.0625 C2.90808594 1.30033203 2.90808594 1.30033203 1.5390625 1.54296875 C-13.19766379 4.38662276 -24.25023033 10.03195713 -33.1875 22.5 C-38.23309607 30.79021451 -39.08000548 38.24981034 -38.66015625 47.86328125 C-38.75098798 51.09768082 -39.35580064 53.17102817 -40.75 56.0625 C-41.08 56.0625 -41.41 56.0625 -41.75 56.0625 C-42.37384249 39.4960161 -41.27690315 27.00289214 -29.75 14.0625 C-21.78173743 6.31888165 -11.41272166 -0.16783414 0 0 Z " fill="#08699D" transform="translate(758.75,226.9375)"/>
<path d="M0 0 C0.33 0 0.66 0 1 0 C1.08636719 1.22074219 1.17273438 2.44148438 1.26171875 3.69921875 C2.43805926 18.24346916 4.88004786 31.55614095 16 42 C23.48462287 47.50475971 31.31459138 52.4210895 40.9375 52.125 C41.70964844 52.10695313 42.48179687 52.08890625 43.27734375 52.0703125 C43.84582031 52.04710937 44.41429687 52.02390625 45 52 C45.33 52.99 45.66 53.98 46 55 C32.41995834 55.4938197 22.6983425 50.67352353 12.53515625 41.86328125 C3.41457448 32.39258118 -0.20215875 21.00387647 -0.0625 8.1875 C-0.05573242 7.00510742 -0.05573242 7.00510742 -0.04882812 5.79882812 C-0.03711312 3.86585239 -0.01917998 1.93291607 0 0 Z " fill="#086093" transform="translate(554,468)"/>
<path d="M0 0 C-7.92 3.96 -7.92 3.96 -16 8 C-16 8.66 -16 9.32 -16 10 C-18.53682516 11.322644 -21.07877651 12.63317361 -23.625 13.9375 C-24.69427734 14.49727539 -24.69427734 14.49727539 -25.78515625 15.06835938 C-29.90169402 17.16439466 -33.36730662 18.42741992 -38 19 C-39.63664797 19.48298633 -41.26361502 20.00095675 -42.875 20.5625 C-43.65617188 20.83191406 -44.43734375 21.10132813 -45.2421875 21.37890625 C-45.82226562 21.58386719 -46.40234375 21.78882813 -47 22 C-44.75939001 19.68386383 -42.95708728 18.31426101 -40 17 C-38.845 16.46375 -37.69 15.9275 -36.5 15.375 C-33 14 -33 14 -29 14 C-28.67 13.01 -28.34 12.02 -28 11 C-26.0153048 10.28906441 -24.0113092 9.6317276 -22 9 C-19.58337386 7.7082622 -17.22781792 6.39651128 -14.875 5 C-12.5873346 3.65945722 -10.29535428 2.3274338 -8 1 C-7.28070312 0.566875 -6.56140625 0.13375 -5.8203125 -0.3125 C-4 -1 -4 -1 0 0 Z " fill="#0C4B87" transform="translate(618,751)"/>
<path d="M0 0 C4.88192944 1.57421141 8.43951654 4.40204567 12.4375 7.5 C13.87267477 8.59509219 15.30889088 9.68882086 16.74609375 10.78125 C17.46265137 11.32652344 18.17920898 11.87179687 18.91748047 12.43359375 C21.90458508 14.68040069 24.94621193 16.84516445 28 19 C35.78567282 24.50763004 43.3925107 30.24992367 51 36 C49.10083008 36.56542969 49.10083008 36.56542969 47 37 C45.38671875 35.953125 45.38671875 35.953125 43.6875 34.25 C39.90621392 30.71516646 35.93678631 27.65259554 31.75 24.625 C31.09950684 24.15304199 30.44901367 23.68108398 29.77880859 23.19482422 C28.47251856 22.24723786 27.16588163 21.30012952 25.85888672 20.35351562 C22.18847904 17.68097292 18.5670808 14.94375886 14.94140625 12.2109375 C12.83018461 10.62401658 10.71390571 9.04607823 8.58984375 7.4765625 C8.03127686 7.06229004 7.47270996 6.64801758 6.8972168 6.22119141 C5.33392989 5.06222281 3.76858483 3.90603187 2.203125 2.75 C1.47609375 2.1725 0.7490625 1.595 0 1 C0 0.67 0 0.34 0 0 Z " fill="#085A90" transform="translate(280,503)"/>
<path d="M0 0 C2.59876882 2.59876882 2.79287972 4.58539927 3.62109375 8.16015625 C3.91556396 9.42150391 4.21003418 10.68285156 4.51342773 11.98242188 C4.82204775 13.34231281 5.13006113 14.70234155 5.4375 16.0625 C5.75265022 17.43685706 6.06783581 18.81120601 6.38305664 20.18554688 C12.23607469 45.89029437 12.23607469 45.89029437 12 55 C11.34 54.67 10.68 54.34 10 54 C9.40234375 51.234375 9.40234375 51.234375 8.9375 47.75 C7.8758491 39.99380668 6.2244934 32.44461507 4.5 24.8125 C4.16162109 23.2975293 4.16162109 23.2975293 3.81640625 21.75195312 C3.48962891 20.3065918 3.48962891 20.3065918 3.15625 18.83203125 C2.95837891 17.95264893 2.76050781 17.0732666 2.55664062 16.16723633 C2.07406856 13.97259661 2.07406856 13.97259661 1 12 C0.77141886 9.9625237 0.58975722 7.91959697 0.4375 5.875 C0.35371094 4.77929688 0.26992188 3.68359375 0.18359375 2.5546875 C0.12300781 1.71164062 0.06242187 0.86859375 0 0 Z " fill="#096495" transform="translate(393,356)"/>
<path d="M0 0 C0.33 0 0.66 0 1 0 C0.61052112 6.45997735 -0.21510289 12.77538959 -1.4375 19.125 C-1.68371094 20.40632812 -1.92992187 21.68765625 -2.18359375 23.0078125 C-2.45300781 23.99523437 -2.72242188 24.98265625 -3 26 C-3.66 26.33 -4.32 26.66 -5 27 C-5.54916393 28.91106317 -5.54916393 28.91106317 -5.875 31.25 C-7.02954623 37.67449114 -8.99708487 43.79679683 -11 50 C-11.33 50 -11.66 50 -12 50 C-11.41278272 42.46933515 -9.67642337 35.56842137 -7.625 28.3125 C-5.31986844 19.9916658 -3.1477402 11.72597306 -1.5078125 3.24609375 C-1 1 -1 1 0 0 Z " fill="#0B5187" transform="translate(399,565)"/>
<path d="M0 0 C0 0.33 0 0.66 0 1 C-0.6612085 1.08040527 -1.32241699 1.16081055 -2.00366211 1.24365234 C-4.9828665 1.61129996 -7.96010937 1.99295358 -10.9375 2.375 C-11.97841797 2.50132812 -13.01933594 2.62765625 -14.09179688 2.7578125 C-15.08115234 2.88671875 -16.07050781 3.015625 -17.08984375 3.1484375 C-18.46450806 3.32125244 -18.46450806 3.32125244 -19.86694336 3.49755859 C-20.57085205 3.66336426 -21.27476074 3.82916992 -22 4 C-22.33 4.66 -22.66 5.32 -23 6 C-23.825 6.226875 -24.65 6.45375 -25.5 6.6875 C-33.70411948 9.76404481 -38.84057047 15.52977629 -43.4921875 22.765625 C-44.85057954 24.778579 -46.22132619 26.35978583 -48 28 C-45.73969798 18.20535789 -37.3071104 10.00451454 -29.03125 4.75 C-19.70568913 -0.28284237 -10.41071912 -0.2665618 0 0 Z " fill="#066296" transform="translate(606,429)"/>
<path d="M0 0 C1.87555619 2.81333429 2.71811483 4.94787987 3.75 8.125 C8.70670472 21.95639296 17.95919485 30.67137397 31 37 C29.33203125 37.6875 29.33203125 37.6875 27 38 C14.57688153 32.21649615 6.24602077 22.26539188 1.125 9.75 C0.07422727 6.24742422 -0.2717517 3.62335598 0 0 Z " fill="#0A4E7F" transform="translate(718,281)"/>
<path d="M0 0 C4.61990405 2.16238515 8.41160461 5.214864 12.4375 8.3125 C13.18837891 8.88162109 13.93925781 9.45074219 14.71289062 10.03710938 C18.76285329 13.13958737 22.4975588 16.28866569 26 20 C22.41486894 18.37815499 19.41007677 16.20743761 16.25 13.875 C15.26515625 13.15054688 14.2803125 12.42609375 13.265625 11.6796875 C12.51796875 11.12539062 11.7703125 10.57109375 11 10 C11 12.41943693 14.4198315 15.19405752 16 17.0625 C16.47695313 17.63033203 16.95390625 18.19816406 17.4453125 18.78320312 C18.62802928 20.1906361 19.81373963 21.59555246 21 23 C20.67 23.66 20.34 24.32 20 25 C17.82535122 22.54862627 15.66169267 20.08780163 13.5 17.625 C12.87996094 16.92632812 12.25992187 16.22765625 11.62109375 15.5078125 C11.03457031 14.8375 10.44804687 14.1671875 9.84375 13.4765625 C9.29912109 12.85861816 8.75449219 12.24067383 8.19335938 11.60400391 C7 10 7 10 7 8 C6.34 8 5.68 8 5 8 C0 2.52380952 0 2.52380952 0 0 Z " fill="#137A9C" transform="translate(256,109)"/>
<path d="M0 0 C4.83815361 1.61271787 6.58609619 5.67772198 9 10 C15.1966958 23.95230877 14.43152898 35.45685338 11 50 C10.67 50 10.34 50 10 50 C9.87451207 43.47462773 9.87451207 43.47462773 10.484375 41.16796875 C13.00152588 30.58449347 10.75299378 19.02426001 5.69140625 9.55078125 C4.87568789 8.24127493 4.03260286 6.9478939 3.1484375 5.68359375 C1.90581422 3.86192493 0.94841671 1.98819466 0 0 Z " fill="#076999" transform="translate(802,242)"/>
<path d="M0 0 C0.33 0 0.66 0 1 0 C0.53182725 7.80287912 -1.67547977 14.34606092 -4.4375 21.625 C-5.25074279 23.80392538 -6.0619974 25.98359403 -6.87109375 28.1640625 C-7.2460498 29.1737207 -7.62100586 30.18337891 -8.00732422 31.22363281 C-9.16238832 34.45417607 -10.13025823 37.68262427 -11 41 C-11.66 40.67 -12.32 40.34 -13 40 C-12.45640935 34.91354466 -11.27510498 30.81196978 -9.25 26.125 C-6.52883769 19.66068917 -4.43795317 13.12643635 -2.56152344 6.37158203 C-1.08706174 1.08706174 -1.08706174 1.08706174 0 0 Z " fill="#0C5087" transform="translate(164,557)"/>
<path d="M0 0 C2.61617384 1.70355506 4.05405328 3.11833584 5.6875 5.75 C4.6975 6.245 4.6975 6.245 3.6875 6.75 C3.06875 6.110625 2.45 5.47125 1.8125 4.8125 C-1.86276021 1.24533568 -4.81922719 1.41480793 -9.765625 1.46484375 C-13.47316516 1.87995177 -15.57111356 3.2827522 -18.3125 5.75 C-20.10292033 8.73832746 -20.80931641 11.58986053 -21.4375 15 C-21.60507812 15.89203125 -21.77265625 16.7840625 -21.9453125 17.703125 C-22.06648437 18.37859375 -22.18765625 19.0540625 -22.3125 19.75 C-22.6425 19.75 -22.9725 19.75 -23.3125 19.75 C-23.66730978 14.76295144 -23.89790154 10.92080309 -21.625 6.375 C-15.49965023 -0.57809974 -8.93776444 -3.3727413 0 0 Z " fill="#0A699E" transform="translate(808.3125,452.25)"/>
<path d="M0 0 C10.36552649 1.53292997 17.85478448 10.12151857 24 18 C26.81735609 22.16478726 28.5062491 25.9390533 29 31 C25.90676492 29.45338246 25.20070571 26.3939432 23.8125 23.375 C18.78030284 13.01091501 12.36781348 8.29677261 2.59765625 2.6015625 C1.74042969 2.07304687 0.88320313 1.54453125 0 1 C0 0.67 0 0.34 0 0 Z " fill="#08699C" transform="translate(615,432)"/>
<path d="M0 0 C0.66 0.66 1.32 1.32 2 2 C1.03320312 2.02578125 0.06640625 2.0515625 -0.9296875 2.078125 C-14.08202924 2.6510983 -22.72415383 5.23817556 -32 15 C-32.33 15.66 -32.66 16.32 -33 17 C-33.66 17 -34.32 17 -35 17 C-33.42922825 11.0659734 -29.07660074 7.851993 -24.0078125 4.80078125 C-16.318367 0.77653837 -8.69283728 -0.98028679 0 0 Z " fill="#0774A7" transform="translate(843,357)"/>
<path d="M0 0 C0.99 0.33 1.98 0.66 3 1 C5.06587115 0.91426773 7.12946525 0.76166465 9.1875 0.5625 C10.27417969 0.46066406 11.36085938 0.35882812 12.48046875 0.25390625 C13.31191406 0.17011719 14.14335937 0.08632813 15 0 C14 2 14 2 12.25341797 2.61010742 C9.79618927 3.14840553 7.33874854 3.67971849 4.875 4.1875 C4.03195312 4.37763672 3.18890625 4.56777344 2.3203125 4.76367188 C-2.82562663 5.84639664 -6.8481441 6.09599103 -12 5 C-12 4.34 -12 3.68 -12 3 C-11.13375 3.04125 -10.2675 3.0825 -9.375 3.125 C-5.87641532 2.99542279 -3.25448403 2.23980344 0 1 C0 0.67 0 0.34 0 0 Z " fill="#103969" transform="translate(265,872)"/>
<path d="M0 0 C0 0.66 0 1.32 0 2 C-3.39165005 3.17908109 -6.78892712 4.34103966 -10.1875 5.5 C-11.14720703 5.83386719 -12.10691406 6.16773438 -13.09570312 6.51171875 C-14.02705078 6.82753906 -14.95839844 7.14335938 -15.91796875 7.46875 C-16.77156982 7.76201172 -17.6251709 8.05527344 -18.50463867 8.35742188 C-21.10411957 9.02681173 -23.32764529 9.11719018 -26 9 C-22.65045846 4.82837777 -18.97078446 3.88620695 -13.9375 2.8125 C-12.50895456 2.48637727 -11.08056287 2.15958011 -9.65234375 1.83203125 C-8.44707031 1.55746094 -7.24179687 1.28289063 -6 1 C-3 0 -3 0 0 0 Z " fill="#0C3F74" transform="translate(448,825)"/>
<path d="M0 0 C0.66 0.66 1.32 1.32 2 2 C0.35 3.98 -1.3 5.96 -3 8 C-1.35 8 0.3 8 2 8 C0.74458443 10.51083114 -0.50063488 10.87125446 -3 12 C-3 12.33 -3 12.66 -3 13 C-6.3 13.33 -9.6 13.66 -13 14 C-11.55401676 11.10803353 -9.30346813 9.24862365 -7 7 C-6.484375 6.484375 -5.96875 5.96875 -5.4375 5.4375 C-3.625 3.625 -1.8125 1.8125 0 0 Z " fill="#10528D" transform="translate(133,627)"/>
<path d="M0 0 C0.79921875 0.00902344 1.5984375 0.01804688 2.421875 0.02734375 C3.02515625 0.03894531 3.6284375 0.05054688 4.25 0.0625 C4.25 0.3925 4.25 0.7225 4.25 1.0625 C2.90808594 1.30033203 2.90808594 1.30033203 1.5390625 1.54296875 C-11.20411248 4.00193961 -19.4504022 8.00999296 -28.75 17.0625 C-29.74 16.7325 -30.73 16.4025 -31.75 16.0625 C-23.49864079 7.65833785 -12.20932482 -0.17954889 0 0 Z " fill="#0774A3" transform="translate(758.75,226.9375)"/>
<path d="M0 0 C0.94875 0.825 1.8975 1.65 2.875 2.5 C7.48450321 6.45641138 12.24034752 10.22675437 17 14 C16.01 14.495 16.01 14.495 15 15 C13.02 13.68 11.04 12.36 9 11 C9.99 12.32 10.98 13.64 12 15 C11.67 15.66 11.34 16.32 11 17 C8.96644849 14.73950295 6.94838912 12.46800554 4.9375 10.1875 C4.06641602 9.22360352 4.06641602 9.22360352 3.17773438 8.24023438 C2.63310547 7.61826172 2.08847656 6.99628906 1.52734375 6.35546875 C1.01937256 5.78465576 0.51140137 5.21384277 -0.01196289 4.62573242 C-0.33801514 4.08924072 -0.66406738 3.55274902 -1 3 C-0.67 2.01 -0.34 1.02 0 0 Z " fill="#146E92" transform="translate(116,378)"/>
<path d="M0 0 C2.98482847 1.39515578 5.55357889 3.02332375 8.1875 5 C9.22970703 5.7734375 9.22970703 5.7734375 10.29296875 6.5625 C12 8 12 8 13 10 C13.04022391 12.3329866 13.04320247 14.66706666 13 17 C7.84577707 12.32898547 3.88634822 6.74755221 0 1 C0 0.67 0 0.34 0 0 Z " fill="#049BD3" transform="translate(124,388)"/>
<path d="M0 0 C1.31452952 3.62338265 0.66579629 5.60602807 -0.75 9.125 C-2.1885528 12.82766684 -3.48109955 16.49000964 -4.5625 20.3125 C-5.666845 24.11702919 -7.0763539 27.51911658 -9 31 C-10.45191602 27.16839477 -9.50153099 24.73525075 -8.1640625 20.95703125 C-7.75929688 19.80138672 -7.35453125 18.64574219 -6.9375 17.45507812 C-6.504375 16.25302734 -6.07125 15.05097656 -5.625 13.8125 C-5.19960938 12.59884766 -4.77421875 11.38519531 -4.3359375 10.13476562 C-1.16289908 1.16289908 -1.16289908 1.16289908 0 0 Z " fill="#0B538B" transform="translate(386,616)"/>
<path d="M0 0 C0.66 0 1.32 0 2 0 C0.85569823 3.87302138 -0.23320098 7.00263439 -3 10 C-3.66 10 -4.32 10 -5 10 C-5.061875 10.70125 -5.12375 11.4025 -5.1875 12.125 C-6.29201202 16.0332733 -8.28230992 18.00357248 -11 21 C-11.66 20.67 -12.32 20.34 -13 20 C-12.360625 19.2575 -11.72125 18.515 -11.0625 17.75 C-8.9331436 15.31355242 -8.9331436 15.31355242 -8.6171875 13.1875 C-7.73251659 10.05195753 -5.97840253 7.86920852 -4.0625 5.25 C-3.35222656 4.26515625 -2.64195312 3.2803125 -1.91015625 2.265625 C-1.27980469 1.51796875 -0.64945312 0.7703125 0 0 Z " fill="#104178" transform="translate(262,843)"/>
<path d="M0 0 C-2.55417466 1.68077299 -5.11701497 3.34450921 -7.6875 5 C-8.40873047 5.47695313 -9.12996094 5.95390625 -9.87304688 6.4453125 C-16.5355535 10.70444915 -16.5355535 10.70444915 -21 10 C-18.37065886 4.74131773 -5.6613997 -1.88713323 0 0 Z " fill="#094C84" transform="translate(729,688)"/>
<path d="M0 0 C3.46437402 1.2708641 6.29922328 2.73612751 9.28515625 4.8984375 C10.45208008 5.74148438 10.45208008 5.74148438 11.64257812 6.6015625 C12.44115234 7.18679688 13.23972656 7.77203125 14.0625 8.375 C15.26616211 9.24125 15.26616211 9.24125 16.49414062 10.125 C20.26422383 12.86574098 23.85024029 15.53441072 27 19 C23.69485433 18.37874945 21.56159773 17.19851415 18.84765625 15.234375 C18.07099609 14.67363281 17.29433594 14.11289062 16.49414062 13.53515625 C15.69169922 12.94605469 14.88925781 12.35695313 14.0625 11.75 C13.26392578 11.17636719 12.46535156 10.60273438 11.64257812 10.01171875 C7.41074416 6.93338385 3.56619 3.8327537 0 0 Z " fill="#046B9F" transform="translate(772,497)"/>
<path d="M0 0 C3.58513106 1.62184501 6.58992323 3.79256239 9.75 6.125 C11.22726562 7.21167969 11.22726562 7.21167969 12.734375 8.3203125 C13.48203125 8.87460938 14.2296875 9.42890625 15 10 C14.34 11.65 13.68 13.3 13 15 C8.42265886 10.56570077 4.07873675 5.89853248 0 1 C0 0.67 0 0.34 0 0 Z " fill="#06A6D9" transform="translate(264,117)"/>
<path d="M0 0 C3.48669341 0.62202294 5.65307927 1.98401822 8.4765625 4.08984375 C9.311875 4.70923828 10.1471875 5.32863281 11.0078125 5.96679688 C11.87148438 6.61712891 12.73515625 7.26746094 13.625 7.9375 C14.49640625 8.58396484 15.3678125 9.23042969 16.265625 9.89648438 C22.67009403 14.67009403 22.67009403 14.67009403 25 17 C21.15027101 17 20.04765576 15.80346075 17 13.5 C16.03449219 12.77683594 15.06898438 12.05367187 14.07421875 11.30859375 C12.55248047 10.16583984 12.55248047 10.16583984 11 9 C8.00997854 6.85057644 5.01547523 4.70756342 2.01953125 2.56640625 C1.35308594 2.04949219 0.68664062 1.53257812 0 1 C0 0.67 0 0.34 0 0 Z " fill="#075A8D" transform="translate(854,557)"/>
<path d="M0 0 C0.99 0.33 1.98 0.66 3 1 C-0.01518811 4.36309443 -2.72659066 6.46802307 -7 8 C-10.05908612 7.94993312 -12.99418929 7.55440509 -16 7 C-16 6.67 -16 6.34 -16 6 C-14.64455078 5.72736328 -14.64455078 5.72736328 -13.26171875 5.44921875 C-12.08222656 5.19785156 -10.90273438 4.94648438 -9.6875 4.6875 C-7.92986328 4.32205078 -7.92986328 4.32205078 -6.13671875 3.94921875 C-3.11917264 3.03606345 -1.89419215 2.44125126 0 0 Z " fill="#06558E" transform="translate(857,416)"/>
<path d="M0 0 C2.84550012 0.66010476 5.52325999 1.51724966 8.25 2.5625 C8.95640625 2.83191406 9.6628125 3.10132813 10.390625 3.37890625 C10.92171875 3.58386719 11.4528125 3.78882813 12 4 C12 4.66 12 5.32 12 6 C14.97 6 17.94 6 21 6 C21 6.33 21 6.66 21 7 C10.20852299 8.55062 10.20852299 8.55062 6 6 C4.375 4.5625 4.375 4.5625 3 3 C2.443125 2.443125 1.88625 1.88625 1.3125 1.3125 C0.879375 0.879375 0.44625 0.44625 0 0 Z " fill="#085893" transform="translate(742,314)"/>
<path d="M0 0 C0 0.66 0 1.32 0 2 C-2.40832892 3.22812793 -4.82421325 4.43228415 -7.25 5.625 C-7.93191406 5.975625 -8.61382813 6.32625 -9.31640625 6.6875 C-11.328125 7.6640625 -11.328125 7.6640625 -15 9 C-17.22949219 8.08349609 -17.22949219 8.08349609 -19 7 C-16.2100561 5.82905995 -13.41821403 4.66309073 -10.625 3.5 C-9.43390625 2.99919922 -9.43390625 2.99919922 -8.21875 2.48828125 C-7.45820312 2.17246094 -6.69765625 1.85664062 -5.9140625 1.53125 C-5.2123291 1.23798828 -4.5105957 0.94472656 -3.78759766 0.64257812 C-2 0 -2 0 0 0 Z " fill="#0B3D6F" transform="translate(584,768)"/>
<path d="M0 0 C3.60659717 3.32570954 6.1717585 7.40228964 8.96484375 11.40625 C10.82764476 13.78033805 12.50104348 15.34521 15 17 C14.67 17.66 14.34 18.32 14 19 C7.76082339 14.21768697 3.43241481 9.11185948 0 2 C0 1.34 0 0.68 0 0 Z " fill="#055E91" transform="translate(558,495)"/>
<path d="M0 0 C2.64 0 5.28 0 8 0 C5.69470868 2.30529132 4.31933368 2.6464497 1.2109375 3.5078125 C0.26992188 3.77207031 -0.67109375 4.03632812 -1.640625 4.30859375 C-2.62546875 4.57800781 -3.6103125 4.84742188 -4.625 5.125 C-5.61757813 5.40214844 -6.61015625 5.67929687 -7.6328125 5.96484375 C-10.08695736 6.64917261 -12.54265163 7.32728269 -15 8 C-15 7.34 -15 6.68 -15 6 C-12.87607494 5.3299166 -10.75082476 4.66403203 -8.625 4 C-7.44164062 3.62875 -6.25828125 3.2575 -5.0390625 2.875 C-2 2 -2 2 0 2 C0 1.34 0 0.68 0 0 Z " fill="#0D4F90" transform="translate(391,840)"/>
<path d="M0 0 C-3.3195335 3.3195335 -6.4750131 4.13809773 -11 5 C-13.00744615 5.64389782 -15.00945124 6.30562253 -17 7 C-17 6.34 -17 5.68 -17 5 C-14.73392948 3.96724659 -12.46318061 2.94866449 -10.1875 1.9375 C-9.22360352 1.49567383 -9.22360352 1.49567383 -8.24023438 1.04492188 C-3.33984375 -1.11328125 -3.33984375 -1.11328125 0 0 Z " fill="#0C4E8B" transform="translate(547,785)"/>
<path d="M0 0 C0 0.66 0 1.32 0 2 C-1.26691507 2.67408308 -2.53870749 3.33900497 -3.8125 4 C-4.52019531 4.37125 -5.22789062 4.7425 -5.95703125 5.125 C-8 6 -8 6 -11 6 C-13.15028304 6.94978897 -13.15028304 6.94978897 -15 8 C-15 7.34 -15 6.68 -15 6 C-11.63316085 3.56839395 -10.26649636 3 -6 3 C-6 2.34 -6 1.68 -6 1 C-3.92446352 0.4465236 -2.15634036 0 0 0 Z " fill="#0A4B84" transform="translate(681,716)"/>
<path d="M0 0 C2.97 0.495 2.97 0.495 6 1 C2.8745041 3.64465038 -0.08788267 4.84414715 -4 6 C-4.66 5.34 -5.32 4.68 -6 4 C-4.7934375 3.566875 -4.7934375 3.566875 -3.5625 3.125 C-0.8673532 2.26737432 -0.8673532 2.26737432 0 0 Z " fill="#0B467D" transform="translate(625,744)"/>
<path d="M0 0 C0.556875 0.7425 1.11375 1.485 1.6875 2.25 C3.93727787 4.92541152 6.2309174 6.88675275 9 9 C9.66 9.66 10.32 10.32 11 11 C8.875 11.4375 8.875 11.4375 6 11 C3.59341984 8.95412506 1.60890285 6.72020688 0 4 C0 2.68 0 1.36 0 0 Z " fill="#0C5084" transform="translate(786,470)"/>
<path d="M0 0 C4.34037775 0.49514018 7.08612375 3.31113872 10.25 6.0625 C10.80429687 6.53494141 11.35859375 7.00738281 11.9296875 7.49414062 C13.291749 8.65658967 14.64659956 9.82747855 16 11 C11.74756898 11 9.50347498 8.59661122 6.3125 6.0625 C5.70599609 5.59392578 5.09949219 5.12535156 4.47460938 4.64257812 C2.95941803 3.45803596 1.47662877 2.23227936 0 1 C0 0.67 0 0.34 0 0 Z " fill="#067AA7" transform="translate(422,237)"/>
<path d="M0 0 C3 1 3 1 5 3 C3.37585622 3.19477739 1.75063577 3.38059458 0.125 3.5625 C-0.77992188 3.66691406 -1.68484375 3.77132812 -2.6171875 3.87890625 C-5 4 -5 4 -7 3 C-7 2.34 -7 1.68 -7 1 C-5.5459375 1.0309375 -5.5459375 1.0309375 -4.0625 1.0625 C-1.12534105 1.35618499 -1.12534105 1.35618499 0 0 Z " fill="#124277" transform="translate(260,874)"/>
<path d="M0 0 C-3.01431321 2.42285223 -6.05517439 4.12756366 -9.5625 5.75 C-10.51253906 6.19859375 -11.46257813 6.6471875 -12.44140625 7.109375 C-15 8 -15 8 -18 7 C-15.94414903 5.82006797 -13.88163459 4.65621545 -11.8125 3.5 C-10.66394531 2.8503125 -9.51539063 2.200625 -8.33203125 1.53125 C-5.14862918 0.06830321 -3.42692535 -0.36140832 0 0 Z " fill="#0C5292" transform="translate(565,776)"/>
<path d="M0 0 C0.66 0 1.32 0 2 0 C0.40956621 5.08938811 -2.7446951 8.87456643 -6 13 C-6.33 12.34 -6.66 11.68 -7 11 C-5.63671875 8.3984375 -5.63671875 8.3984375 -3.6875 5.375 C-3.05199219 4.37210938 -2.41648438 3.36921875 -1.76171875 2.3359375 C-1.18035156 1.56507813 -0.59898437 0.79421875 0 0 Z " fill="#0E3E6D" transform="translate(136,619)"/>
<path d="M0 0 C-2.95183101 2.95183101 -5.95511947 3.08663988 -10 4 C-10 3.34 -10 2.68 -10 2 C-11.65 2.33 -13.3 2.66 -15 3 C-12.50497077 0.50497077 -10.94071581 0.41462527 -7.5 -0.1875 C-6.5203125 -0.36667969 -5.540625 -0.54585937 -4.53125 -0.73046875 C-2 -1 -2 -1 0 0 Z " fill="#0B4279" transform="translate(415,837)"/>
<path d="M0 0 C0.33 0 0.66 0 1 0 C1.99 4.95 2.98 9.9 4 15 C3.01 15.495 3.01 15.495 2 16 C-0.27141454 10.60539047 -0.20413361 5.73842251 0 0 Z " fill="#0C5586" transform="translate(803,388)"/>
<path d="M0 0 C3.81684226 1.55500981 6.19195732 4.03595495 9 7 C7.68 7.33 6.36 7.66 5 8 C0 2.25 0 2.25 0 0 Z " fill="#20758E" transform="translate(256,109)"/>
<path d="M0 0 C0.66 0.66 1.32 1.32 2 2 C1.9765625 4.3828125 1.9765625 4.3828125 1.625 7.125 C1.51414062 8.03507813 1.40328125 8.94515625 1.2890625 9.8828125 C1.19367188 10.58148437 1.09828125 11.28015625 1 12 C0.01 11.67 -0.98 11.34 -2 11 C-1.34 7.37 -0.68 3.74 0 0 Z " fill="#0A5C98" transform="translate(395,580)"/>
<path d="M0 0 C0 2 0 4 0 6 C-2 8 -2 8 -4.625 8.125 C-5.40875 8.08375 -6.1925 8.0425 -7 8 C-5.55682808 5.11365616 -3.29639313 3.2389833 -1 1 C-0.67 0.67 -0.34 0.34 0 0 Z " fill="#124069" transform="translate(127,633)"/>
<path d="M0 0 C0.66 1.32 1.32 2.64 2 4 C0.02 6.97 -1.96 9.94 -4 13 C-4 10 -4 10 -2.5625 7.625 C-0.99717886 4.99526048 -0.42887375 3.00211625 0 0 Z " fill="#0B5698" transform="translate(306,781)"/>
<path d="M0 0 C6.70212766 1.93617021 6.70212766 1.93617021 9 5 C9 5.66 9 6.32 9 7 C4.58110387 5.64978174 2.65654657 3.73884332 0 0 Z " fill="#0398CA" transform="translate(389,213)"/>
<path d="M0 0 C0.33 0.99 0.66 1.98 1 3 C-1.31 4.98 -3.62 6.96 -6 9 C-6.33 8.01 -6.66 7.02 -7 6 C-6.401875 5.7525 -5.80375 5.505 -5.1875 5.25 C-2.71352479 3.83629988 -1.56629745 2.34944617 0 0 Z " fill="#0F4E8C" transform="translate(278,825)"/>
<path d="M0 0 C-2.71182212 2.60334924 -3.89133813 2.99456691 -7.75 3.1875 C-8.8225 3.125625 -9.895 3.06375 -11 3 C-10 1 -10 1 -6.625 -0.1875 C-3 -1 -3 -1 0 0 Z " fill="#0D4F88" transform="translate(219,608)"/>
<path d="M0 0 C3.81684226 1.55500981 6.19195732 4.03595495 9 7 C8.34 7.66 7.68 8.32 7 9 C5.83037314 7.69013727 4.66437056 6.3770374 3.5 5.0625 C2.8503125 4.33160156 2.200625 3.60070312 1.53125 2.84765625 C0 1 0 1 0 0 Z " fill="#0EB3E4" transform="translate(264,117)"/>
<path d="M0 0 C0.33 0.66 0.66 1.32 1 2 C-2.375 2.625 -2.375 2.625 -6 3 C-6.66 2.34 -7.32 1.68 -8 1 C-2.25 -1.125 -2.25 -1.125 0 0 Z " fill="#0E437B" transform="translate(335,859)"/>
<path d="M0 0 C0.66 0 1.32 0 2 0 C0.52307692 5.66153846 0.52307692 5.66153846 -2.125 7.375 C-3.053125 7.684375 -3.053125 7.684375 -4 8 C-2.87548273 5.0280615 -1.77706209 2.66559313 0 0 Z " fill="#0D3260" transform="translate(262,843)"/>
<path d="M0 0 C0.66 0.33 1.32 0.66 2 1 C1.01 3.64 0.02 6.28 -1 9 C-1.99 9 -2.98 9 -4 9 C-2.68 6.03 -1.36 3.06 0 0 Z " fill="#0A64A9" transform="translate(367,671)"/>
<path d="M0 0 C2.97 0.495 2.97 0.495 6 1 C6.33 2.32 6.66 3.64 7 5 C3.34683329 3.75023244 2.21934164 3.32901247 0 0 Z " fill="#048BC1" transform="translate(173,425)"/>
<path d="M0 0 C2.375 0.3125 2.375 0.3125 5 1 C5.66 1.99 6.32 2.98 7 4 C5.35 4 3.7 4 2 4 C1.34 2.68 0.68 1.36 0 0 Z " fill="#0492BF" transform="translate(336,172)"/>
<path d="M0 0 C0.66 0.66 1.32 1.32 2 2 C1.34 2 0.68 2 0 2 C0 1.34 0 0.68 0 0 Z " fill="#0C84B9" transform="translate(798,448)"/>
<path d="M0 0 C0.33 0.66 0.66 1.32 1 2 C0.34 1.67 -0.32 1.34 -1 1 C-0.67 0.67 -0.34 0.34 0 0 Z " fill="#0B76AD" transform="translate(802,399)"/>
<path d="M0 0 C2 1 2 1 2 1 Z " fill="#104779" transform="translate(256,879)"/>
<path d="M0 0 C2 1 2 1 2 1 Z " fill="#103F6B" transform="translate(232,877)"/>
<path d="M0 0 C2 1 2 1 2 1 Z " fill="#104A81" transform="translate(304,869)"/>
<path d="M0 0 C2 1 2 1 2 1 Z " fill="#0E4C83" transform="translate(374,851)"/>
<path d="M0 0 C2 1 2 1 2 1 Z " fill="#098BC1" transform="translate(624,512)"/>
<path d="" fill="#0B8CBD" transform="translate(0,0)"/>
<path d="" fill="#0C6DA5" transform="translate(0,0)"/>
<path d="" fill="#098ABC" transform="translate(0,0)"/>
<path d="M0 0 C2 1 2 1 2 1 Z " fill="#0B96C1" transform="translate(321,200)"/>
<path d="" fill="#14416A" transform="translate(0,0)"/>
<path d="" fill="#164674" transform="translate(0,0)"/>
<path d="" fill="#0E477D" transform="translate(0,0)"/>
<path d="" fill="#0F4A81" transform="translate(0,0)"/>
<path d="" fill="#10497E" transform="translate(0,0)"/>
<path d="" fill="#0B4A80" transform="translate(0,0)"/>
<path d="" fill="#0B4C81" transform="translate(0,0)"/>
<path d="" fill="#0C4981" transform="translate(0,0)"/>
<path d="" fill="#0D4B82" transform="translate(0,0)"/>
<path d="" fill="#0D4E88" transform="translate(0,0)"/>
<path d="" fill="#0D538A" transform="translate(0,0)"/>
<path d="" fill="#0A4D83" transform="translate(0,0)"/>
<path d="" fill="#0B558D" transform="translate(0,0)"/>
<path d="" fill="#0B5186" transform="translate(0,0)"/>
<path d="" fill="#0B548B" transform="translate(0,0)"/>
<path d="" fill="#0A5893" transform="translate(0,0)"/>
<path d="" fill="#0C6BA9" transform="translate(0,0)"/>
<path d="" fill="#0F6BA5" transform="translate(0,0)"/>
<path d="" fill="#135E93" transform="translate(0,0)"/>
<path d="" fill="#105D95" transform="translate(0,0)"/>
<path d="" fill="#0F68A5" transform="translate(0,0)"/>
<path d="" fill="#1267A0" transform="translate(0,0)"/>
<path d="" fill="#0A6B9F" transform="translate(0,0)"/>
<path d="" fill="#0A72AE" transform="translate(0,0)"/>
<path d="" fill="#0A76AF" transform="translate(0,0)"/>
<path d="" fill="#0C71AD" transform="translate(0,0)"/>
<path d="" fill="#097AB1" transform="translate(0,0)"/>
<path d="" fill="#0B83B6" transform="translate(0,0)"/>
<path d="" fill="#0979B2" transform="translate(0,0)"/>
<path d="" fill="#088DC0" transform="translate(0,0)"/>
<path d="" fill="#0A8BC0" transform="translate(0,0)"/>
<path d="" fill="#0B8EC3" transform="translate(0,0)"/>
<path d="" fill="#0B81B7" transform="translate(0,0)"/>
<path d="" fill="#0D7BB3" transform="translate(0,0)"/>
<path d="" fill="#0D7CB1" transform="translate(0,0)"/>
<path d="" fill="#0D7BB0" transform="translate(0,0)"/>
<path d="" fill="#0C8BC1" transform="translate(0,0)"/>
<path d="" fill="#0D86BE" transform="translate(0,0)"/>
<path d="" fill="#0A90C4" transform="translate(0,0)"/>
<path d="" fill="#0A85BA" transform="translate(0,0)"/>
<path d="" fill="#0C7EB6" transform="translate(0,0)"/>
<path d="" fill="#078DC4" transform="translate(0,0)"/>
<path d="" fill="#068FC4" transform="translate(0,0)"/>
<path d="" fill="#0893C6" transform="translate(0,0)"/>
<path d="" fill="#0C8EC2" transform="translate(0,0)"/>
<path d="" fill="#0D87BB" transform="translate(0,0)"/>
<path d="" fill="#068EC7" transform="translate(0,0)"/>
<path d="" fill="#078FC1" transform="translate(0,0)"/>
<path d="" fill="#0A92CB" transform="translate(0,0)"/>
<path d="" fill="#0C8CBA" transform="translate(0,0)"/>
<path d="" fill="#058ABF" transform="translate(0,0)"/>
<path d="" fill="#0B689D" transform="translate(0,0)"/>
<path d="" fill="#0A6CA4" transform="translate(0,0)"/>
<path d="" fill="#0A6DA8" transform="translate(0,0)"/>
<path d="" fill="#08659C" transform="translate(0,0)"/>
<path d="" fill="#0A6BA4" transform="translate(0,0)"/>
<path d="" fill="#0E8EBC" transform="translate(0,0)"/>
<path d="" fill="#128DB6" transform="translate(0,0)"/>
<path d="" fill="#096EA7" transform="translate(0,0)"/>
<path d="" fill="#0D72AA" transform="translate(0,0)"/>
<path d="" fill="#0889BE" transform="translate(0,0)"/>
<path d="" fill="#0988BA" transform="translate(0,0)"/>
<path d="" fill="#108EB7" transform="translate(0,0)"/>
<path d="" fill="#1581A2" transform="translate(0,0)"/>
<path d="" fill="#13769B" transform="translate(0,0)"/>
<path d="" fill="#0C82B9" transform="translate(0,0)"/>
<path d="" fill="#0887B7" transform="translate(0,0)"/>
<path d="" fill="#0690C0" transform="translate(0,0)"/>
<path d="" fill="#0990BF" transform="translate(0,0)"/>
<path d="" fill="#087FAF" transform="translate(0,0)"/>
<path d="" fill="#088CC0" transform="translate(0,0)"/>
<path d="" fill="#088EBE" transform="translate(0,0)"/>
<path d="" fill="#0C86B8" transform="translate(0,0)"/>
<path d="" fill="#088DBC" transform="translate(0,0)"/>
<path d="" fill="#088FBE" transform="translate(0,0)"/>
<path d="" fill="#0D8EC0" transform="translate(0,0)"/>
<path d="" fill="#0D71AE" transform="translate(0,0)"/>
<path d="" fill="#0B6EA5" transform="translate(0,0)"/>
<path d="" fill="#0B70A9" transform="translate(0,0)"/>
<path d="" fill="#098DBB" transform="translate(0,0)"/>
<path d="" fill="#0891C1" transform="translate(0,0)"/>
<path d="" fill="#096CA3" transform="translate(0,0)"/>
<path d="" fill="#0A6BA4" transform="translate(0,0)"/>
<path d="" fill="#0A6DA5" transform="translate(0,0)"/>
<path d="" fill="#066FA7" transform="translate(0,0)"/>
<path d="" fill="#0994C1" transform="translate(0,0)"/>
<path d="" fill="#0594C2" transform="translate(0,0)"/>
<path d="" fill="#0B91BF" transform="translate(0,0)"/>
<path d="" fill="#0797C2" transform="translate(0,0)"/>
<path d="" fill="#0993BE" transform="translate(0,0)"/>
<path d="" fill="#0985B4" transform="translate(0,0)"/>
<path d="" fill="#0A94BE" transform="translate(0,0)"/>
<path d="" fill="#0D92BD" transform="translate(0,0)"/>
<path d="" fill="#0893BD" transform="translate(0,0)"/>
<path d="" fill="#0997C4" transform="translate(0,0)"/>
<path d="" fill="#0E95BD" transform="translate(0,0)"/>
<path d="" fill="#0791BD" transform="translate(0,0)"/>
<path d="" fill="#0A98C3" transform="translate(0,0)"/>
<path d="" fill="#0E97BF" transform="translate(0,0)"/>
<path d="" fill="#0D95C0" transform="translate(0,0)"/>
<path d="" fill="#0C9AC6" transform="translate(0,0)"/>
<path d="" fill="#0E9CC6" transform="translate(0,0)"/>
<path d="" fill="#1096BD" transform="translate(0,0)"/>
<path d="" fill="#0B99C1" transform="translate(0,0)"/>
<path d="" fill="#0C97C0" transform="translate(0,0)"/>
<path d="" fill="#129BC2" transform="translate(0,0)"/>
<path d="" fill="#1193BC" transform="translate(0,0)"/>
<path d="" fill="#1292B4" transform="translate(0,0)"/>
<path d="" fill="#198EB3" transform="translate(0,0)"/>
<path d="" fill="#1788A6" transform="translate(0,0)"/>
<path d="" fill="#1A87A2" transform="translate(0,0)"/>
<path d="" fill="#1A87A1" transform="translate(0,0)"/>
<path d="" fill="#1E87A4" transform="translate(0,0)"/>
<path d="" fill="#1D7C95" transform="translate(0,0)"/>
<path d="" fill="#207A91" transform="translate(0,0)"/>
<path d="" fill="#1E7992" transform="translate(0,0)"/>
<path d="" fill="#207790" transform="translate(0,0)"/>
<path d="" fill="#217B92" transform="translate(0,0)"/>
<path d="" fill="#23758A" transform="translate(0,0)"/>
</svg>
