<?xml version="1.0" encoding="utf-8"?>
<!DOCTYPE svg PUBLIC "-//W3C//DTD SVG 20010904//EN" "http://www.w3.org/TR/2001/REC-SVG-20010904/DTD/svg10.dtd">
<svg version="1.0" xmlns="http://www.w3.org/2000/svg" width="1256pt" height="1256pt" viewBox="0 0 1256 1256" preserveAspectRatio="xMidYMid meet">
<g fill="#31CB79FF">
<path d="M 295.00 1094.72 C 297.46 1092.72 311.94 1076.32 322.13 1064.00 C 368.79 1007.55 406.40 950.11 437.36 888.00 C 476.16 810.19 499.38 731.59 508.15 648.45 C 509.99 631.03 510.37 621.35 510.42 591.00 C 510.52 536.85 506.81 501.43 495.94 452.70 C 476.24 364.35 442.25 290.14 385.32 211.19 C 379.64 203.32 375.00 196.70 375.00 196.49 C 375.00 196.27 373.99 195.02 372.75 193.72 C 371.51 192.42 367.80 187.81 364.50 183.49 C 361.20 179.16 354.86 171.08 350.42 165.53 C 345.97 159.98 342.33 154.72 342.33 153.85 C 342.33 152.82 347.64 156.16 357.42 163.32 C 365.71 169.40 377.23 177.81 383.00 182.00 C 397.99 192.89 528.90 289.25 557.67 310.58 C 570.96 320.44 590.99 335.30 602.17 343.62 C 628.65 363.31 702.81 418.35 715.00 427.35 C 726.53 435.88 759.37 460.30 786.50 480.54 C 797.50 488.75 823.89 508.30 845.15 523.98 C 964.34 611.94 1087.18 703.65 1088.50 705.66 C 1089.67 707.44 1085.34 711.66 1058.00 735.39 C 973.44 808.78 887.92 868.42 785.50 925.44 C 761.12 939.01 699.97 969.51 669.27 983.42 C 604.12 1012.93 520.72 1043.28 456.00 1061.01 C 449.68 1062.75 442.48 1064.77 440.00 1065.52 C 431.09 1068.19 378.13 1080.84 361.00 1084.38 C 338.79 1088.96 297.43 1096.13 294.13 1095.97 C 293.78 1095.95 294.18 1095.39 295.00 1094.72ZM 761.12 642.76 C 770.76 639.24 776.73 635.45 783.50 628.57 C 798.06 613.77 803.61 591.33 797.65 571.36 C 796.36 567.04 795.13 562.83 794.90 562.00 C 794.68 561.17 794.23 560.27 793.90 560.00 C 793.57 559.73 792.12 557.62 790.68 555.32 C 784.57 545.56 774.25 537.03 762.81 532.29 C 753.71 528.52 736.19 527.83 726.33 530.85 C 706.61 536.88 691.14 553.50 686.38 573.77 C 684.02 583.83 684.91 599.39 688.36 608.38 C 693.35 621.37 704.22 633.53 716.30 639.65 C 729.69 646.44 747.66 647.68 761.12 642.76Z"/></g>
<g fill="#31CB79FF">
<path d="M 165.00 795.51 C 165.00 795.34 167.86 791.00 171.35 785.85 C 200.83 742.46 216.97 688.94 216.98 634.50 C 216.99 587.79 205.10 546.98 177.21 498.00 C 173.61 491.68 169.35 484.56 167.74 482.18 C 166.13 479.80 164.96 477.72 165.15 477.56 C 165.73 477.06 199.08 502.00 256.50 545.87 C 270.25 556.38 287.57 569.59 294.98 575.24 C 302.40 580.88 322.87 596.72 340.48 610.43 C 358.09 624.14 381.50 642.32 392.50 650.84 C 403.50 659.35 413.06 666.82 413.74 667.43 C 414.68 668.28 413.40 669.73 408.24 673.65 C 340.27 725.15 270.92 762.15 198.00 785.83 C 185.65 789.84 165.00 795.90 165.00 795.51Z"/></g>
<g fill="#31CB79FF">
<path d="M 940.50 384.41 C 929.03 381.86 921.46 377.65 912.92 369.10 C 901.50 357.66 896.00 344.52 896.00 328.68 C 896.00 312.95 901.47 299.60 912.55 288.30 C 934.80 265.63 970.96 265.52 993.11 288.05 C 1002.38 297.49 1007.14 307.53 1009.17 321.93 C 1012.86 348.14 994.54 375.65 968.06 383.67 C 960.92 385.84 948.42 386.17 940.50 384.41Z"/></g>
<g fill="#31CB79FF">
<path d="M 1038.37 508.92 C 1025.92 507.35 1013.82 498.25 1008.18 486.22 C 1005.76 481.06 1005.50 479.38 1005.50 469.00 C 1005.50 458.31 1005.71 457.08 1008.43 451.50 C 1011.94 444.33 1020.72 435.25 1027.12 432.17 C 1033.30 429.20 1042.82 427.62 1049.54 428.46 C 1057.02 429.40 1067.80 434.97 1072.97 440.58 C 1075.28 443.09 1078.59 448.15 1080.33 451.82 C 1083.23 457.93 1083.50 459.35 1083.50 468.50 C 1083.50 477.78 1083.26 479.02 1080.11 485.74 C 1075.93 494.64 1068.61 501.92 1059.76 505.95 C 1052.53 509.23 1046.99 510.00 1038.37 508.92Z"/></g>
<g fill="#31CB79FF">
<path d="M 983.50 577.32 C 978.04 575.80 972.84 569.57 971.63 563.11 C 970.79 558.63 972.45 552.81 975.65 549.01 C 984.07 538.99 999.35 540.82 1005.01 552.52 C 1008.92 560.60 1006.11 570.61 998.51 575.58 C 996.03 577.21 986.89 578.27 983.50 577.32Z"/></g>
</svg>
